<svg xmlns="http://www.w3.org/2000/svg" viewBox="0 -0.5 305 350" shape-rendering="crispEdges">
<metadata>Made with Pixels to Svg https://codepen.io/shshaw/pen/XbxvNj</metadata>
<path stroke="#7891a5" d="M144 0h22M138 1h7M165 1h7M134 2h5M171 2h5M131 3h4M175 3h4M128 4h4M178 4h4M125 5h4M181 5h4M123 6h3M184 6h3M121 7h3M186 7h3M119 8h3M188 8h3M117 9h3M190 9h3M116 10h2M192 10h2M114 11h3M193 11h3M113 12h2M195 12h2M111 13h3M196 13h3M110 14h2M198 14h2M109 15h2M199 15h2M107 16h3M200 16h3M106 17h2M202 17h2M105 18h2M203 18h2M104 19h2M204 19h2M103 20h2M205 20h2M102 21h2M206 21h2M101 22h2M207 22h2M100 23h2M208 23h2M99 24h2M209 24h2M98 25h2M210 25h2M97 26h2M211 26h2M96 27h2M212 27h2M95 28h2M213 28h2M94 29h2M214 29h2M93 30h2M215 30h2M92 31h2M216 31h2M91 32h2M217 32h2M90 33h2M218 33h2M89 34h2M219 34h2M88 35h2M220 35h2M87 36h2M221 36h2M86 37h2M222 37h2M85 38h2M223 38h2M85 39h1M224 39h1M84 40h2M224 40h2M83 41h2M225 41h2M82 42h2M226 42h2M82 43h1M227 43h1M81 44h2M227 44h2M80 45h2M228 45h2M80 46h1M229 46h1M79 47h2M229 47h2M78 48h2M230 48h2M78 49h1M231 49h1M77 50h2M231 50h2M76 51h2M232 51h2M76 52h1M233 52h1M75 53h2M233 53h2M75 54h1M234 54h1M74 55h2M234 55h2M73 56h2M235 56h2M73 57h1M236 57h1M72 58h2M236 58h2M72 59h1M237 59h1M71 60h2M237 60h2M71 61h1M238 61h1M70 62h2M238 62h2M70 63h1M239 63h1M69 64h2M239 64h2M69 65h1M240 65h1M69 66h1M240 66h1M68 67h2M240 67h2M68 68h1M241 68h1M67 69h2M241 69h2M67 70h1M242 70h1M66 71h2M242 71h2M66 72h1M243 72h1M66 73h1M243 73h1M65 74h2M243 74h2M65 75h1M244 75h1M64 76h2M244 76h2M64 77h1M245 77h1M64 78h1M245 78h1M63 79h2M245 79h2M63 80h1M246 80h1M63 81h1M246 81h1M62 82h2M246 82h2M62 83h1M247 83h1M62 84h1M247 84h1M61 85h2M247 85h2M61 86h1M248 86h1M61 87h1M248 87h1M61 88h1M248 88h1M60 89h2M248 89h2M60 90h1M249 90h1M60 91h1M249 91h1M60 92h1M249 92h1M59 93h2M249 93h2M59 94h1M250 94h1M59 95h1M250 95h1M59 96h1M250 96h1M58 97h2M250 97h2M58 98h1M251 98h1M58 99h1M251 99h1M58 100h1M251 100h1M58 101h1M251 101h1M57 102h2M251 102h2M57 103h1M252 103h1M57 104h1M252 104h1M57 105h1M252 105h1M57 106h1M252 106h1M56 107h2M252 107h2M56 108h1M253 108h1M56 109h1M253 109h1M56 110h1M253 110h1M56 111h1M253 111h1M56 112h1M253 112h1M56 113h1M253 113h1M55 114h2M253 114h2M55 115h1M254 115h1M55 116h1M254 116h1M55 117h1M254 117h1M55 118h1M254 118h1M55 119h1M254 119h1M55 120h1M254 120h1M55 121h1M254 121h1M55 122h1M254 122h1M55 123h1M254 123h1M54 124h2M254 124h2M54 125h1M255 125h1M54 126h1M255 126h1M54 127h1M255 127h1M54 128h1M255 128h1M54 129h1M255 129h1M54 130h1M255 130h1M54 131h1M255 131h1M54 132h1M255 132h1M54 133h1M255 133h1M54 134h1M255 134h1M54 135h1M255 135h1M54 136h1M255 136h1M54 137h1M255 137h1M54 138h1M255 138h1M54 139h1M255 139h1M54 140h1M255 140h1M54 141h1M255 141h1M54 142h1M255 142h1M54 143h1M255 143h1M54 144h1M255 144h1M54 145h1M255 145h1M54 146h1M255 146h1M54 147h1M255 147h1M54 148h1M255 148h1M54 149h1M255 149h1M54 150h1M255 150h1M54 151h1M255 151h1M54 152h1M255 152h1M54 153h1M255 153h1M54 154h1M255 154h1M54 155h1M255 155h1M54 156h1M255 156h1M54 157h1M255 157h1M54 158h2M254 158h2M55 159h1M254 159h1M55 160h1M254 160h1M55 161h1M254 161h1M55 162h1M254 162h1M55 163h1M254 163h1M55 164h1M254 164h1M55 165h1M254 165h1M55 166h1M254 166h1M55 167h1M254 167h1M55 168h2M253 168h2M56 169h1M253 169h1M56 170h1M253 170h1M56 171h1M253 171h1M56 172h1M253 172h1M56 173h1M253 173h1M56 174h1M253 174h1M56 175h2M252 175h2M57 176h1M252 176h1M57 177h1M252 177h1M57 178h1M252 178h1M57 179h1M252 179h1M57 180h2M251 180h2M58 181h1M251 181h1M58 182h1M251 182h1M58 183h1M251 183h1M58 184h1M251 184h1M58 185h2M250 185h2M59 186h1M250 186h1M59 187h1M250 187h1M59 188h1M250 188h1M59 189h2M249 189h2M60 190h1M249 190h1M60 191h1M249 191h1M60 192h1M249 192h1M60 193h2M248 193h2M61 194h1M248 194h1M61 195h1M248 195h1M61 196h1M248 196h1M61 197h2M247 197h2M62 198h1M247 198h1M62 199h1M247 199h1M62 200h2M246 200h2M63 201h1M246 201h1M63 202h1M246 202h1M63 203h2M245 203h2M64 204h1M245 204h1M64 205h1M245 205h1M64 206h2M244 206h2M65 207h1M244 207h1M65 208h2M243 208h2" />
<path stroke="#37415a" d="M145 1h20M139 2h32M135 3h12M163 3h12M132 4h9M169 4h9M129 5h8M173 5h8M126 6h8M176 6h8M124 7h7M179 7h7M122 8h6M182 8h6M120 9h6M184 9h6M118 10h6M186 10h6M117 11h5M188 11h5M115 12h5M190 12h5M114 13h5M191 13h5M112 14h5M193 14h5M111 15h5M194 15h5M110 16h4M196 16h4M108 17h5M197 17h5M107 18h5M198 18h5M106 19h4M200 19h4M105 20h4M201 20h4M104 21h4M202 21h4M103 22h4M203 22h4M102 23h4M204 23h4M101 24h4M205 24h4M100 25h4M206 25h4M99 26h4M207 26h4M98 27h4M208 27h4M97 28h4M209 28h4M96 29h4M210 29h4M95 30h4M211 30h4M94 31h4M212 31h4M93 32h4M213 32h4M92 33h4M214 33h4M91 34h4M215 34h4M90 35h4M216 35h4M89 36h4M217 36h4M88 37h4M218 37h4M87 38h4M219 38h4M86 39h4M220 39h4M86 40h3M221 40h3M85 41h3M222 41h3M84 42h4M222 42h4M83 43h4M223 43h4M83 44h3M224 44h3M82 45h3M225 45h3M81 46h4M225 46h4M81 47h3M226 47h3M80 48h3M227 48h3M79 49h4M227 49h4M79 50h3M228 50h3M78 51h3M229 51h3M77 52h4M229 52h4M77 53h3M230 53h3M76 54h3M231 54h3M76 55h3M231 55h3M75 56h3M232 56h3M74 57h4M232 57h4M74 58h3M233 58h3M73 59h3M234 59h3M73 60h3M234 60h3M72 61h3M235 61h3M72 62h3M235 62h3M71 63h3M236 63h3M71 64h3M236 64h3M70 65h3M237 65h3M70 66h3M237 66h3M70 67h2M238 67h2M69 68h3M238 68h3M69 69h3M238 69h3M68 70h3M239 70h3M68 71h3M239 71h3M67 72h3M240 72h3M67 73h3M240 73h3M67 74h2M241 74h2M66 75h3M241 75h3M66 76h3M241 76h3M65 77h3M242 77h3M65 78h3M242 78h3M65 79h2M243 79h2M64 80h3M243 80h3M64 81h3M243 81h3M64 82h2M244 82h2M63 83h3M244 83h3M63 84h3M244 84h3M63 85h2M245 85h2M62 86h3M245 86h3M62 87h3M245 87h3M62 88h2M246 88h2M62 89h2M246 89h2M61 90h3M246 90h3M61 91h3M246 91h3M61 92h2M247 92h2M61 93h2M247 93h2M60 94h3M247 94h3M60 95h3M247 95h3M60 96h2M248 96h2M60 97h2M248 97h2M59 98h3M248 98h3M59 99h3M248 99h3M59 100h2M249 100h2M59 101h2M249 101h2M59 102h2M249 102h2M58 103h3M249 103h3M58 104h3M249 104h3M58 105h2M250 105h2M58 106h2M250 106h2M58 107h2M250 107h2M57 108h3M250 108h3M57 109h3M250 109h3M57 110h2M251 110h2M57 111h2M251 111h2M57 112h2M251 112h2M57 113h2M251 113h2M57 114h2M251 114h2M56 115h3M251 115h3M56 116h3M251 116h3M56 117h2M252 117h2M56 118h2M252 118h2M56 119h2M252 119h2M56 120h2M252 120h2M56 121h2M252 121h2M56 122h2M252 122h2M56 123h2M252 123h2M56 124h2M252 124h2M55 125h3M252 125h3M55 126h3M252 126h3M55 127h2M253 127h2M55 128h2M253 128h2M55 129h2M253 129h2M55 130h2M253 130h2M55 131h2M253 131h2M55 132h2M253 132h2M55 133h2M253 133h2M55 134h2M253 134h2M55 135h2M253 135h2M55 136h2M253 136h2M55 137h2M253 137h2M55 138h2M253 138h2M55 139h2M253 139h2M55 140h2M253 140h2M55 141h2M253 141h2M55 142h2M253 142h2M55 143h2M253 143h2M55 144h2M253 144h2M55 145h2M253 145h2M55 146h2M253 146h2M55 147h2M253 147h2M55 148h2M253 148h2M55 149h2M253 149h2M55 150h2M253 150h2M55 151h2M253 151h2M55 152h2M253 152h2M55 153h2M253 153h2M55 154h2M253 154h2M55 155h2M253 155h2M55 156h3M252 156h3M55 157h3M252 157h3M56 158h2M252 158h2M56 159h2M252 159h2M56 160h2M252 160h2M56 161h2M252 161h2M56 162h2M252 162h2M56 163h2M252 163h2M56 164h2M252 164h2M56 165h2M252 165h2M56 166h3M251 166h3M56 167h3M251 167h3M57 168h2M251 168h2M57 169h2M251 169h2M57 170h2M251 170h2M57 171h2M251 171h2M57 172h2M251 172h2M57 173h3M250 173h3M57 174h3M250 174h3M58 175h2M250 175h2M58 176h2M250 176h2M58 177h2M250 177h2M58 178h3M249 178h3M58 179h3M249 179h3M59 180h2M249 180h2M59 181h2M249 181h2M59 182h2M249 182h2M59 183h3M248 183h3M59 184h3M248 184h3M60 185h2M248 185h2M60 186h2M248 186h2M60 187h3M247 187h3M60 188h3M247 188h3M61 189h2M247 189h2M61 190h2M247 190h2M61 191h3M246 191h3M61 192h3M246 192h3M62 193h2M246 193h2M62 194h2M246 194h2M62 195h3M245 195h3M62 196h3M245 196h3M63 197h2M245 197h2M63 198h3M244 198h3M63 199h3M244 199h3M64 200h2M244 200h2M64 201h3M243 201h3M64 202h3M243 202h3M65 203h2M243 203h2M65 204h3M242 204h3M65 205h3M242 205h3M66 206h3M241 206h3M66 207h3M241 207h3M67 208h2M241 208h2" />
<path stroke="#3073a4" d="M147 3h16M141 4h28M137 5h36M134 6h42M131 7h17M162 7h17M128 8h14M168 8h14M126 9h12M172 9h12M124 10h11M175 10h11M122 11h10M178 11h10M120 12h9M181 12h9M119 13h8M183 13h8M117 14h8M185 14h8M116 15h7M187 15h7M114 16h7M189 16h7M113 17h7M190 17h7M112 18h6M192 18h6M110 19h7M193 19h7M109 20h6M195 20h6M108 21h6M196 21h6M107 22h6M197 22h6M106 23h5M199 23h5M105 24h5M200 24h5M104 25h5M201 25h5M103 26h5M202 26h5M102 27h5M203 27h5M101 28h5M204 28h5M100 29h5M205 29h5M99 30h5M206 30h5M98 31h5M207 31h5M97 32h5M208 32h5M96 33h5M209 33h5M95 34h5M210 34h5M94 35h5M211 35h5M93 36h5M212 36h5M92 37h5M213 37h5M91 38h5M214 38h5M90 39h5M215 39h5M89 40h5M216 40h5M88 41h5M217 41h5M88 42h4M218 42h4M87 43h5M218 43h5M86 44h5M219 44h5M85 45h5M220 45h5M85 46h4M221 46h4M84 47h5M221 47h5M83 48h5M222 48h5M83 49h4M223 49h4M82 50h5M223 50h5M81 51h5M224 51h5M81 52h4M225 52h4M80 53h5M225 53h5M79 54h5M226 54h5M79 55h4M227 55h4M78 56h5M227 56h5M78 57h4M228 57h4M77 58h5M228 58h5M76 59h5M229 59h5M76 60h4M230 60h4M75 61h5M230 61h5M75 62h4M231 62h4M74 63h5M231 63h5M74 64h4M232 64h4M73 65h5M232 65h5M73 66h4M233 66h4M72 67h5M233 67h5M72 68h4M234 68h4M72 69h4M234 69h4M71 70h5M234 70h5M71 71h4M235 71h4M70 72h5M235 72h5M70 73h4M236 73h4M69 74h5M236 74h5M69 75h4M237 75h4M69 76h4M237 76h4M68 77h5M237 77h5M68 78h4M238 78h4M67 79h5M238 79h5M67 80h4M239 80h4M67 81h4M239 81h4M66 82h5M239 82h5M66 83h4M240 83h4M66 84h4M240 84h4M65 85h5M240 85h5M65 86h4M241 86h4M65 87h4M241 87h4M64 88h5M241 88h5M64 89h4M242 89h4M64 90h4M242 90h4M64 91h4M242 91h4M63 92h5M242 92h5M63 93h4M243 93h4M63 94h4M243 94h4M63 95h4M243 95h4M62 96h5M243 96h5M62 97h4M244 97h4M62 98h4M244 98h4M62 99h4M244 99h4M61 100h5M244 100h5M61 101h4M245 101h4M61 102h4M245 102h4M61 103h4M245 103h4M61 104h4M245 104h4M60 105h5M245 105h5M60 106h4M246 106h4M60 107h4M246 107h4M60 108h4M246 108h4M60 109h4M246 109h4M59 110h5M246 110h5M59 111h4M247 111h4M59 112h4M247 112h4M59 113h4M247 113h4M59 114h4M247 114h4M59 115h4M247 115h4M59 116h4M247 116h4M58 117h5M247 117h5M58 118h4M248 118h4M58 119h4M248 119h4M58 120h4M248 120h4M58 121h4M248 121h4M58 122h4M248 122h4M58 123h4M248 123h4M58 124h4M248 124h4M58 125h4M248 125h4M58 126h4M248 126h4M57 127h5M248 127h5M57 128h4M249 128h4M57 129h4M249 129h4M57 130h4M249 130h4M57 131h4M249 131h4M57 132h4M249 132h4M57 133h4M249 133h4M57 134h4M249 134h4M57 135h4M249 135h4M57 136h4M249 136h4M57 137h4M249 137h4M57 138h4M249 138h4M57 139h4M249 139h4M57 140h4M249 140h4M57 141h4M249 141h4M57 142h4M249 142h4M57 143h4M249 143h4M57 144h4M249 144h4M57 145h4M249 145h4M57 146h4M249 146h4M57 147h4M249 147h4M57 148h4M249 148h4M57 149h4M249 149h4M57 150h4M249 150h4M57 151h4M249 151h4M57 152h4M249 152h4M57 153h4M249 153h4M57 154h4M249 154h4M57 155h5M248 155h5M58 156h4M248 156h4M58 157h4M248 157h4M58 158h4M248 158h4M58 159h4M248 159h4M58 160h4M248 160h4M58 161h4M248 161h4M58 162h4M248 162h4M58 163h4M248 163h4M58 164h4M248 164h4M58 165h5M247 165h5M59 166h4M247 166h4M59 167h4M247 167h4M59 168h4M247 168h4M59 169h4M247 169h4M59 170h4M247 170h4M59 171h4M247 171h4M59 172h5M246 172h5M60 173h4M246 173h4M60 174h4M246 174h4M60 175h4M246 175h4M60 176h4M246 176h4M60 177h5M245 177h5M61 178h4M245 178h4M61 179h4M245 179h4M61 180h4M245 180h4M61 181h4M245 181h4M61 182h5M244 182h5M62 183h4M244 183h4M62 184h4M244 184h4M62 185h4M244 185h4M62 186h5M243 186h5M63 187h4M243 187h4M63 188h4M243 188h4M63 189h4M243 189h4M63 190h5M242 190h5M64 191h4M242 191h4M64 192h4M242 192h4M64 193h4M242 193h4M64 194h5M241 194h5M65 195h4M241 195h4M65 196h4M241 196h4M65 197h5M240 197h5M66 198h4M240 198h4M66 199h4M240 199h4M66 200h5M239 200h5M67 201h4M239 201h4M67 202h4M239 202h4M67 203h5M238 203h5M68 204h4M238 204h4M68 205h5M237 205h5M69 206h4M237 206h4M69 207h4M237 207h4M69 208h5M236 208h5" />
<path stroke="#4de1ff" d="M148 7h14M142 8h6M162 8h6M138 9h4M168 9h4M135 10h3M148 10h14M172 10h3M132 11h3M142 11h26M175 11h3M129 12h3M138 12h34M178 12h3M127 13h2M140 13h35M181 13h2M125 14h2M142 14h36M183 14h2M123 15h2M141 15h39M185 15h2M121 16h2M127 16h3M141 16h41M187 16h2M120 17h1M125 17h4M138 17h21M162 17h22M189 17h1M118 18h2M123 18h2M134 18h28M165 18h21M190 18h2M117 19h1M127 19h38M167 19h21M192 19h1M115 20h2M122 20h68M193 20h2M114 21h1M118 21h73M195 21h1M113 22h1M117 22h76M196 22h1M111 23h2M115 23h15M149 23h25M175 23h19M197 23h2M110 24h1M114 24h10M134 24h14M156 24h20M178 24h18M199 24h1M109 25h1M113 25h6M127 25h29M161 25h17M180 25h17M200 25h1M108 26h1M111 26h4M122 26h39M164 26h16M182 26h16M201 26h1M107 27h1M110 27h3M119 27h45M168 27h14M184 27h15M202 27h1M106 28h1M109 28h1M117 28h51M171 28h13M185 28h16M203 28h1M105 29h1M114 29h57M173 29h13M187 29h15M204 29h1M104 30h1M113 30h60M176 30h27M205 30h1M103 31h1M108 31h1M112 31h64M178 31h26M206 31h1M102 32h1M106 32h3M112 32h66M180 32h25M207 32h1M101 33h1M104 33h5M112 33h68M182 33h23M208 33h1M100 34h1M103 34h6M111 34h71M184 34h22M209 34h1M99 35h1M102 35h6M110 35h74M185 35h21M210 35h1M98 36h1M101 36h6M110 36h75M187 36h20M211 36h1M97 37h1M100 37h7M109 37h35M154 37h33M189 37h19M212 37h1M96 38h1M99 38h7M108 38h28M143 38h11M160 38h2M167 38h22M190 38h18M213 38h1M95 39h1M98 39h1M100 39h5M107 39h24M135 39h17M162 39h4M172 39h18M191 39h17M214 39h1M94 40h1M100 40h4M106 40h22M130 40h11M150 40h1M164 40h6M175 40h17M193 40h16M215 40h1M93 41h1M99 41h4M104 41h20M126 41h8M149 41h1M166 41h8M179 41h14M194 41h16M216 41h1M92 42h1M98 42h4M103 42h18M123 42h6M148 42h1M169 42h8M181 42h13M195 42h15M217 42h1M92 43h1M97 43h3M102 43h16M120 43h6M143 43h5M170 43h1M172 43h8M183 43h12M197 43h14M217 43h1M91 44h1M96 44h3M100 44h16M117 44h5M136 44h3M146 44h1M171 44h2M174 44h8M185 44h12M198 44h14M218 44h1M90 45h1M95 45h3M99 45h15M115 45h5M145 45h1M173 45h2M177 45h7M187 45h11M199 45h13M219 45h1M89 46h1M93 46h4M98 46h14M113 46h4M144 46h1M175 46h1M179 46h7M189 46h10M200 46h13M220 46h1M89 47h1M92 47h4M97 47h13M111 47h4M140 47h4M176 47h2M182 47h6M191 47h9M201 47h13M220 47h1M88 48h1M91 48h3M96 48h12M109 48h3M133 48h10M178 48h2M184 48h6M192 48h9M202 48h12M221 48h1M87 49h1M90 49h3M94 49h12M107 49h3M128 49h14M180 49h1M186 49h5M194 49h8M203 49h12M222 49h1M87 50h1M90 50h2M93 50h11M105 50h4M125 50h16M181 50h1M187 50h6M195 50h8M204 50h12M222 50h1M86 51h1M89 51h2M92 51h11M104 51h3M121 51h19M182 51h2M189 51h5M196 51h8M205 51h11M223 51h1M85 52h1M88 52h2M91 52h10M102 52h3M119 52h20M183 52h2M190 52h5M198 52h7M206 52h11M224 52h1M85 53h1M88 53h1M90 53h10M101 53h2M116 53h22M184 53h3M192 53h4M199 53h7M207 53h10M224 53h1M84 54h1M87 54h1M89 54h9M99 54h3M114 54h23M185 54h3M193 54h5M200 54h7M208 54h10M221 54h1M225 54h1M83 55h1M86 55h1M88 55h9M98 55h2M112 55h21M135 55h1M186 55h4M194 55h5M201 55h6M208 55h11M222 55h1M226 55h1M83 56h1M87 56h9M97 56h2M110 56h19M134 56h1M187 56h4M195 56h5M202 56h6M209 56h10M222 56h1M226 56h1M82 57h1M86 57h8M95 57h3M109 57h18M133 57h1M188 57h4M196 57h5M203 57h6M210 57h10M223 57h1M227 57h1M82 58h1M85 58h8M94 58h2M107 58h17M133 58h1M189 58h1M191 58h2M197 58h5M204 58h6M211 58h9M227 58h1M81 59h1M84 59h8M93 59h2M105 59h17M132 59h1M190 59h1M192 59h2M198 59h5M205 59h5M211 59h10M228 59h1M80 60h1M83 60h8M92 60h2M104 60h16M132 60h1M191 60h1M193 60h2M199 60h5M206 60h5M212 60h9M229 60h1M80 61h1M83 61h10M102 61h16M131 61h1M192 61h1M195 61h1M200 61h5M207 61h5M213 61h9M224 61h2M229 61h1M79 62h1M82 62h10M101 62h15M128 62h4M193 62h1M196 62h1M201 62h4M207 62h15M224 62h2M230 62h1M79 63h1M82 63h5M88 63h2M100 63h14M125 63h6M193 63h1M202 63h4M208 63h5M214 63h9M224 63h3M230 63h1M78 64h1M81 64h8M98 64h15M123 64h8M193 64h1M203 64h4M209 64h5M215 64h8M225 64h2M231 64h1M78 65h1M81 65h7M97 65h14M120 65h10M193 65h1M204 65h4M210 65h4M215 65h8M225 65h3M231 65h1M77 66h1M80 66h7M96 66h14M118 66h12M192 66h2M204 66h4M210 66h5M216 66h8M225 66h3M232 66h1M77 67h1M80 67h6M95 67h14M116 67h13M191 67h3M205 67h4M211 67h4M216 67h8M226 67h3M232 67h1M76 68h1M79 68h4M84 68h1M94 68h13M115 68h14M191 68h4M206 68h4M212 68h4M217 68h8M226 68h3M233 68h1M76 69h1M79 69h6M93 69h13M113 69h15M190 69h6M206 69h4M212 69h13M227 69h3M233 69h1M76 70h1M79 70h5M92 70h13M112 70h13M127 70h1M190 70h7M207 70h4M213 70h4M218 70h7M227 70h3M233 70h1M75 71h1M78 71h2M81 71h2M85 71h1M91 71h13M110 71h13M126 71h1M189 71h1M191 71h7M208 71h4M213 71h4M218 71h8M227 71h3M234 71h1M75 72h1M78 72h1M80 72h2M84 72h1M90 72h13M109 72h12M125 72h2M189 72h1M192 72h7M208 72h4M214 72h4M219 72h7M227 72h4M234 72h1M74 73h1M77 73h4M83 73h1M89 73h13M108 73h11M123 73h4M188 73h1M190 73h1M193 73h6M209 73h4M215 73h3M219 73h7M228 73h3M235 73h1M74 74h1M77 74h3M83 74h1M88 74h13M106 74h11M121 74h6M187 74h3M193 74h7M209 74h4M215 74h4M220 74h7M228 74h3M235 74h1M73 75h1M76 75h4M82 75h1M87 75h13M105 75h10M119 75h6M126 75h1M187 75h4M194 75h7M210 75h4M216 75h3M220 75h7M228 75h4M236 75h1M73 76h1M77 76h2M81 76h1M86 76h14M104 76h10M117 76h6M126 76h1M188 76h3M195 76h6M210 76h4M216 76h11M229 76h3M236 76h1M73 77h1M76 77h2M80 77h1M85 77h14M103 77h10M116 77h5M127 77h1M188 77h4M196 77h6M211 77h4M216 77h4M221 77h7M229 77h3M236 77h1M72 78h1M76 78h2M79 78h2M82 78h1M85 78h13M102 78h9M114 78h2M117 78h2M127 78h1M188 78h1M190 78h3M196 78h6M211 78h4M217 78h3M221 78h7M229 78h3M237 78h1M72 79h1M75 79h2M79 79h1M81 79h1M84 79h13M101 79h9M113 79h2M116 79h2M125 79h4M189 79h1M191 79h3M197 79h6M212 79h4M217 79h4M222 79h6M229 79h4M237 79h1M71 80h1M74 80h2M78 80h1M83 80h14M100 80h9M112 80h1M115 80h2M123 80h3M128 80h1M189 80h1M192 80h2M197 80h6M212 80h4M218 80h3M222 80h6M230 80h3M238 80h1M71 81h1M74 81h1M77 81h2M80 81h1M82 81h14M99 81h9M110 81h2M113 81h2M121 81h3M129 81h1M189 81h2M192 81h3M198 81h6M212 81h4M218 81h3M222 81h7M230 81h3M238 81h1M71 82h1M74 82h1M77 82h1M79 82h1M82 82h13M98 82h9M109 82h2M112 82h2M120 82h3M129 82h1M190 82h2M193 82h2M198 82h6M213 82h4M218 82h11M230 82h3M238 82h1M70 83h1M73 83h1M76 83h1M81 83h13M98 83h8M108 83h2M111 83h2M118 83h3M127 83h1M130 83h1M190 83h2M194 83h2M199 83h6M213 83h4M219 83h3M223 83h6M230 83h3M239 83h1M70 84h1M73 84h1M75 84h2M78 84h1M80 84h14M97 84h8M107 84h2M110 84h1M117 84h3M125 84h1M130 84h1M190 84h3M194 84h3M199 84h6M213 84h4M219 84h3M223 84h6M230 84h4M239 84h1M70 85h1M75 85h1M77 85h1M80 85h13M96 85h8M106 85h2M109 85h1M116 85h3M123 85h1M128 85h4M191 85h3M195 85h2M200 85h6M214 85h4M219 85h3M223 85h6M230 85h4M239 85h1M69 86h1M74 86h2M77 86h1M79 86h13M95 86h8M105 86h2M108 86h1M115 86h2M122 86h1M126 86h6M191 86h3M195 86h3M200 86h6M214 86h4M220 86h10M231 86h3M240 86h1M69 87h1M74 87h1M76 87h1M79 87h13M94 87h8M104 87h2M107 87h1M114 87h2M120 87h1M125 87h7M191 87h4M196 87h2M200 87h7M214 87h4M220 87h3M224 87h6M231 87h3M240 87h1M69 88h1M73 88h2M78 88h13M94 88h7M103 88h2M106 88h2M112 88h3M118 88h2M123 88h9M191 88h4M196 88h2M201 88h6M214 88h5M220 88h3M224 88h6M231 88h3M240 88h1M68 89h1M72 89h2M75 89h1M78 89h13M93 89h8M103 89h1M105 89h2M111 89h3M118 89h1M122 89h7M130 89h1M191 89h5M197 89h2M201 89h6M215 89h4M220 89h3M224 89h6M231 89h3M238 89h1M241 89h1M68 90h1M72 90h2M77 90h13M92 90h8M102 90h1M105 90h1M110 90h4M116 90h1M121 90h6M130 90h1M191 90h5M197 90h2M202 90h5M215 90h4M221 90h2M224 90h6M231 90h4M238 90h1M241 90h1M68 91h1M71 91h2M74 91h1M77 91h13M92 91h7M101 91h2M104 91h1M110 91h3M115 91h1M120 91h6M130 91h1M190 91h6M198 91h2M202 91h6M215 91h4M221 91h9M231 91h4M241 91h1M68 92h1M71 92h2M76 92h13M91 92h7M100 92h2M103 92h1M109 92h6M119 92h6M129 92h3M189 92h5M195 92h2M198 92h2M202 92h6M215 92h5M221 92h3M225 92h5M231 92h4M241 92h1M67 93h1M70 93h2M73 93h1M76 93h13M91 93h7M100 93h1M102 93h1M108 93h6M118 93h5M126 93h3M188 93h9M198 93h2M202 93h6M215 93h5M221 93h3M225 93h5M231 93h4M242 93h1M67 94h1M70 94h2M75 94h13M90 94h7M99 94h1M102 94h1M107 94h6M117 94h5M123 94h3M188 94h7M196 94h2M199 94h2M202 94h7M215 94h5M221 94h3M225 94h5M231 94h4M242 94h1M67 95h1M70 95h1M72 95h1M75 95h13M89 95h7M98 95h2M101 95h1M106 95h6M116 95h7M190 95h8M199 95h2M203 95h6M216 95h4M222 95h2M225 95h5M231 95h4M242 95h1M67 96h1M70 96h1M74 96h13M89 96h7M98 96h1M100 96h1M106 96h6M115 96h6M191 96h7M199 96h2M203 96h6M216 96h4M222 96h2M225 96h5M231 96h4M242 96h1M66 97h1M69 97h1M74 97h13M88 97h7M97 97h1M100 97h1M105 97h6M115 97h4M193 97h5M199 97h2M203 97h6M216 97h4M222 97h2M225 97h5M231 97h4M243 97h1M66 98h1M71 98h1M73 98h13M88 98h6M96 98h1M99 98h1M104 98h6M114 98h3M194 98h5M200 98h1M203 98h6M216 98h4M222 98h2M225 98h5M231 98h4M243 98h1M66 99h1M69 99h1M73 99h13M87 99h7M96 99h1M99 99h1M104 99h5M113 99h2M195 99h4M200 99h2M203 99h7M216 99h5M222 99h2M225 99h5M231 99h4M243 99h1M66 100h1M73 100h12M87 100h6M95 100h1M98 100h1M103 100h6M112 100h1M196 100h3M200 100h2M204 100h6M216 100h5M222 100h2M225 100h5M231 100h4M243 100h1M65 101h1M72 101h13M87 101h6M95 101h1M97 101h2M103 101h5M111 101h1M196 101h3M200 101h2M204 101h6M216 101h5M222 101h2M225 101h5M231 101h4M238 101h1M244 101h1M65 102h1M68 102h1M72 102h13M86 102h6M94 102h1M97 102h1M102 102h5M110 102h1M196 102h3M200 102h2M204 102h6M216 102h5M222 102h2M225 102h5M231 102h4M238 102h1M244 102h1M65 103h1M72 103h12M86 103h6M96 103h2M102 103h5M110 103h1M196 103h3M200 103h2M204 103h6M215 103h6M222 103h2M225 103h5M231 103h4M238 103h1M244 103h1M65 104h1M71 104h13M85 104h6M96 104h1M101 104h5M110 104h1M196 104h4M201 104h1M204 104h6M215 104h6M222 104h2M225 104h5M231 104h4M238 104h1M244 104h1M65 105h1M71 105h12M85 105h6M96 105h1M101 105h5M109 105h1M196 105h4M201 105h1M204 105h7M215 105h6M222 105h2M225 105h5M231 105h4M238 105h1M244 105h1M64 106h1M71 106h12M85 106h6M95 106h1M100 106h5M109 106h1M197 106h3M201 106h2M204 106h7M215 106h6M222 106h2M225 106h5M231 106h4M238 106h1M245 106h1M64 107h1M70 107h13M84 107h6M95 107h1M100 107h5M109 107h1M197 107h3M201 107h2M204 107h7M215 107h6M222 107h2M225 107h5M231 107h4M238 107h1M245 107h1M64 108h1M70 108h13M84 108h6M94 108h1M99 108h5M109 108h1M197 108h3M201 108h2M204 108h7M215 108h6M222 108h2M225 108h5M231 108h3M245 108h1M64 109h1M70 109h12M84 109h5M94 109h1M99 109h5M108 109h2M197 109h3M201 109h2M204 109h7M214 109h6M222 109h2M225 109h5M231 109h3M245 109h1M64 110h1M70 110h12M83 110h6M94 110h1M99 110h4M108 110h1M197 110h3M201 110h1M204 110h8M214 110h6M222 110h2M225 110h4M230 110h4M237 110h1M245 110h1M63 111h1M69 111h13M83 111h6M93 111h1M99 111h4M107 111h2M197 111h3M201 111h1M204 111h8M213 111h7M222 111h7M230 111h4M237 111h1M246 111h1M63 112h1M68 112h13M83 112h5M93 112h1M98 112h5M107 112h2M198 112h2M201 112h1M204 112h16M222 112h7M230 112h4M237 112h1M246 112h1M63 113h1M68 113h13M83 113h5M93 113h1M98 113h4M107 113h2M198 113h4M204 113h16M221 113h2M224 113h5M230 113h4M237 113h1M246 113h1M63 114h1M68 114h13M82 114h6M93 114h1M98 114h4M106 114h2M198 114h1M200 114h2M204 114h16M221 114h2M224 114h5M230 114h3M246 114h1M63 115h1M69 115h12M82 115h5M92 115h1M98 115h4M106 115h2M198 115h1M200 115h2M204 115h16M221 115h2M224 115h4M229 115h4M236 115h1M246 115h1M63 116h1M66 116h15M82 116h5M92 116h1M97 116h4M106 116h1M198 116h1M200 116h2M204 116h15M221 116h2M224 116h4M229 116h4M236 116h1M246 116h1M63 117h1M66 117h14M82 117h5M92 117h1M97 117h4M105 117h2M199 117h3M203 117h16M221 117h7M229 117h4M236 117h1M246 117h1M62 118h1M66 118h14M81 118h6M92 118h1M97 118h4M105 118h1M199 118h3M203 118h16M220 118h2M223 118h5M229 118h3M235 118h1M240 118h1M247 118h1M62 119h1M67 119h13M81 119h6M91 119h2M97 119h4M105 119h1M199 119h2M203 119h16M220 119h2M223 119h4M228 119h4M235 119h1M247 119h1M62 120h1M68 120h12M81 120h6M91 120h1M97 120h3M104 120h1M199 120h2M203 120h15M220 120h7M228 120h4M235 120h1M247 120h1M62 121h1M68 121h12M81 121h5M91 121h1M97 121h3M103 121h1M199 121h2M203 121h15M219 121h8M228 121h3M234 121h2M239 121h1M247 121h1M62 122h1M68 122h12M81 122h5M91 122h1M97 122h3M102 122h1M199 122h2M202 122h16M219 122h2M222 122h4M227 122h4M234 122h1M239 122h1M247 122h1M62 123h1M68 123h12M81 123h5M91 123h1M96 123h4M102 123h1M199 123h1M202 123h15M219 123h2M222 123h4M227 123h4M234 123h1M247 123h1M62 124h1M68 124h11M81 124h5M91 124h1M96 124h4M102 124h1M200 124h1M202 124h15M218 124h2M221 124h5M227 124h3M233 124h2M238 124h1M247 124h1M62 125h1M67 125h12M80 125h6M91 125h1M96 125h4M102 125h1M200 125h1M202 125h15M218 125h2M221 125h4M226 125h4M233 125h1M238 125h1M247 125h1M62 126h1M66 126h13M80 126h6M91 126h1M96 126h4M102 126h1M200 126h16M218 126h7M226 126h4M232 126h2M247 126h1M62 127h1M66 127h13M80 127h6M91 127h1M96 127h3M102 127h1M200 127h16M217 127h2M220 127h4M225 127h4M232 127h1M237 127h1M247 127h1M61 128h1M66 128h13M80 128h5M91 128h1M96 128h3M101 128h1M200 128h15M217 128h2M220 128h4M225 128h4M231 128h2M237 128h1M248 128h1M61 129h1M66 129h13M80 129h5M90 129h2M96 129h3M101 129h1M200 129h15M216 129h2M219 129h4M224 129h4M230 129h3M236 129h1M248 129h1M61 130h1M67 130h12M80 130h5M90 130h2M96 130h3M101 130h1M200 130h14M216 130h2M219 130h4M224 130h4M230 130h2M236 130h1M248 130h1M61 131h1M67 131h12M80 131h5M90 131h2M96 131h3M101 131h1M200 131h14M215 131h2M218 131h4M223 131h4M229 131h3M235 131h1M248 131h1M61 132h1M67 132h12M80 132h5M90 132h2M96 132h3M101 132h1M201 132h12M215 132h7M223 132h4M229 132h2M235 132h1M248 132h1M61 133h1M67 133h12M80 133h5M90 133h2M96 133h3M100 133h1M201 133h12M214 133h2M217 133h4M222 133h4M228 133h3M234 133h2M248 133h1M61 134h1M67 134h12M80 134h5M90 134h2M96 134h3M100 134h1M201 134h11M213 134h8M222 134h4M228 134h2M234 134h1M245 134h1M248 134h1M61 135h1M67 135h12M80 135h5M91 135h1M96 135h3M100 135h1M201 135h10M213 135h2M216 135h4M221 135h4M227 135h3M233 135h2M245 135h1M248 135h1M61 136h1M67 136h12M80 136h5M91 136h1M96 136h4M201 136h10M212 136h2M215 136h5M221 136h4M227 136h2M233 136h1M244 136h2M248 136h1M61 137h1M68 137h11M80 137h5M91 137h1M96 137h4M201 137h9M211 137h8M220 137h4M226 137h2M232 137h2M244 137h2M248 137h1M61 138h1M68 138h11M80 138h5M91 138h1M96 138h4M201 138h8M211 138h2M214 138h4M219 138h4M225 138h3M232 138h1M243 138h3M248 138h1M61 139h1M68 139h11M80 139h5M91 139h1M97 139h2M201 139h7M210 139h2M213 139h5M219 139h4M225 139h2M231 139h2M243 139h3M248 139h1M61 140h1M68 140h17M91 140h1M97 140h2M201 140h6M209 140h2M212 140h5M218 140h4M224 140h3M231 140h1M242 140h4M248 140h1M61 141h1M68 141h18M91 141h1M97 141h2M122 141h1M202 141h5M208 141h8M217 141h4M223 141h3M230 141h1M242 141h4M248 141h1M61 142h1M68 142h12M81 142h5M91 142h2M97 142h1M122 142h1M202 142h4M207 142h3M211 142h4M216 142h4M223 142h2M229 142h2M241 142h4M248 142h1M61 143h1M68 143h12M81 143h5M91 143h2M97 143h1M122 143h1M180 143h1M203 143h2M206 143h3M210 143h4M215 143h5M222 143h2M229 143h1M241 143h3M248 143h1M61 144h1M68 144h12M81 144h5M92 144h1M97 144h1M122 144h1M180 144h1M203 144h1M206 144h2M209 144h4M215 144h4M221 144h3M228 144h1M240 144h4M248 144h1M61 145h1M68 145h12M81 145h5M92 145h1M96 145h1M121 145h2M179 145h2M203 145h4M208 145h5M214 145h4M220 145h3M227 145h2M239 145h4M248 145h1M61 146h1M68 146h12M81 146h5M92 146h1M96 146h1M121 146h2M179 146h1M181 146h1M203 146h3M207 146h5M213 146h4M219 146h3M227 146h1M239 146h4M248 146h1M61 147h1M69 147h11M81 147h5M92 147h2M96 147h1M121 147h2M179 147h1M181 147h1M203 147h2M206 147h5M212 147h4M219 147h2M226 147h1M238 147h4M248 147h1M61 148h1M69 148h7M77 148h10M93 148h1M96 148h1M120 148h1M122 148h1M178 148h1M181 148h2M203 148h7M211 148h4M218 148h2M225 148h2M237 148h4M248 148h1M61 149h1M64 149h1M69 149h7M77 149h4M82 149h5M93 149h1M96 149h1M120 149h2M178 149h1M180 149h3M203 149h5M210 149h4M217 149h2M224 149h2M237 149h3M248 149h1M61 150h1M64 150h1M69 150h7M78 150h3M82 150h5M93 150h3M119 150h1M121 150h1M178 150h4M203 150h4M209 150h4M216 150h3M223 150h2M236 150h4M248 150h1M61 151h1M64 151h1M69 151h7M78 151h3M82 151h5M93 151h3M119 151h1M121 151h1M178 151h3M203 151h3M208 151h4M215 151h3M222 151h2M235 151h4M248 151h1M61 152h1M64 152h1M70 152h6M78 152h3M82 152h6M94 152h2M118 152h1M121 152h1M178 152h3M203 152h2M206 152h5M214 152h3M222 152h1M235 152h3M248 152h1M61 153h1M64 153h1M70 153h7M79 153h9M94 153h1M118 153h1M121 153h1M177 153h4M203 153h1M205 153h5M213 153h2M221 153h1M234 153h3M248 153h1M61 154h1M64 154h2M70 154h7M79 154h3M83 154h5M94 154h1M117 154h1M121 154h1M177 154h4M203 154h6M211 154h3M233 154h4M245 154h1M248 154h1M62 155h1M65 155h1M69 155h8M79 155h3M83 155h5M94 155h1M116 155h1M121 155h1M177 155h1M180 155h1M203 155h4M210 155h3M232 155h4M247 155h1M62 156h1M65 156h1M71 156h5M80 156h9M93 156h1M116 156h1M122 156h1M177 156h1M181 156h1M202 156h4M209 156h3M231 156h4M244 156h1M247 156h1M62 157h1M65 157h1M71 157h5M80 157h3M84 157h5M93 157h1M116 157h1M122 157h1M177 157h1M179 157h3M202 157h2M208 157h3M230 157h4M244 157h1M247 157h1M62 158h1M65 158h2M70 158h6M80 158h3M84 158h5M93 158h1M116 158h1M122 158h1M178 158h4M202 158h1M206 158h3M229 158h4M243 158h2M247 158h1M62 159h1M65 159h2M70 159h10M81 159h2M84 159h5M93 159h1M116 159h1M122 159h1M178 159h4M201 159h1M205 159h3M228 159h4M242 159h3M247 159h1M62 160h1M65 160h2M70 160h1M72 160h8M81 160h3M85 160h5M94 160h1M115 160h1M122 160h1M179 160h4M201 160h1M203 160h4M227 160h4M242 160h3M247 160h1M62 161h1M65 161h3M71 161h6M78 161h6M85 161h5M94 161h1M115 161h1M121 161h1M179 161h4M202 161h3M226 161h4M241 161h3M247 161h1M62 162h1M65 162h3M71 162h6M78 162h3M82 162h2M85 162h6M94 162h1M115 162h1M121 162h1M180 162h3M203 162h1M225 162h4M241 162h3M247 162h1M62 163h1M65 163h3M71 163h1M73 163h4M78 163h3M82 163h3M86 163h5M94 163h1M114 163h3M120 163h1M180 163h1M182 163h1M203 163h1M224 163h4M240 163h3M247 163h1M62 164h1M65 164h4M72 164h9M82 164h3M86 164h5M93 164h1M113 164h5M119 164h1M180 164h4M203 164h1M223 164h4M239 164h3M247 164h1M63 165h1M66 165h3M72 165h9M83 165h9M93 165h1M112 165h7M180 165h4M204 165h1M222 165h4M238 165h4M246 165h1M63 166h1M66 166h3M72 166h1M74 166h4M79 166h3M83 166h3M87 166h6M112 166h6M180 166h4M204 166h1M220 166h5M237 166h4M246 166h1M63 167h1M66 167h4M73 167h5M80 167h2M84 167h2M87 167h6M112 167h5M180 167h1M183 167h1M204 167h1M214 167h1M219 167h4M237 167h4M246 167h1M63 168h1M67 168h3M73 168h1M75 168h4M80 168h2M84 168h3M88 168h4M112 168h5M180 168h5M204 168h1M218 168h4M236 168h4M243 168h1M246 168h1M63 169h1M67 169h3M75 169h4M80 169h3M85 169h2M88 169h4M111 169h6M180 169h5M204 169h1M216 169h5M235 169h4M242 169h2M246 169h1M63 170h1M67 170h4M76 170h4M82 170h1M85 170h6M111 170h6M179 170h1M184 170h1M205 170h1M209 170h1M215 170h4M234 170h5M242 170h2M246 170h1M63 171h1M67 171h4M76 171h3M86 171h2M89 171h2M111 171h7M179 171h1M184 171h1M206 171h1M213 171h5M233 171h5M241 171h3M246 171h1M64 172h1M68 172h4M76 172h4M83 172h1M86 172h5M110 172h8M178 172h1M184 172h1M206 172h1M212 172h4M232 172h5M240 172h3M245 172h1M64 173h1M68 173h4M77 173h3M87 173h2M90 173h1M110 173h9M177 173h1M184 173h1M206 173h1M210 173h5M223 173h1M231 173h5M240 173h3M245 173h1M64 174h1M69 174h4M76 174h4M87 174h4M110 174h10M176 174h1M185 174h1M205 174h1M208 174h5M221 174h2M230 174h5M239 174h4M245 174h1M64 175h1M69 175h4M78 175h3M88 175h3M109 175h1M112 175h8M175 175h1M185 175h1M206 175h5M219 175h3M229 175h5M238 175h5M245 175h1M64 176h1M67 176h1M69 176h5M77 176h1M79 176h3M88 176h3M109 176h1M113 176h7M175 176h1M185 176h1M206 176h3M217 176h4M228 176h5M237 176h6M245 176h1M65 177h1M70 177h4M80 177h2M89 177h2M109 177h1M114 177h6M175 177h1M185 177h1M207 177h1M215 177h5M227 177h4M237 177h5M244 177h1M65 178h1M70 178h5M78 178h1M80 178h1M82 178h1M90 178h1M109 178h2M115 178h4M175 178h2M185 178h1M207 178h1M213 178h6M225 178h5M236 178h6M244 178h1M65 179h1M68 179h1M71 179h4M79 179h1M82 179h1M90 179h2M108 179h1M110 179h2M116 179h3M176 179h1M186 179h1M207 179h1M211 179h7M224 179h4M235 179h7M244 179h1M65 180h1M68 180h1M71 180h5M79 180h2M82 180h1M91 180h1M108 180h1M111 180h2M117 180h2M176 180h5M186 180h1M206 180h1M209 180h7M223 180h2M234 180h8M244 180h1M65 181h1M68 181h2M72 181h4M80 181h1M82 181h2M89 181h2M108 181h1M112 181h2M118 181h1M177 181h1M186 181h1M206 181h9M221 181h2M233 181h9M244 181h1M66 182h1M69 182h1M72 182h5M80 182h5M88 182h1M108 182h1M113 182h2M118 182h1M177 182h11M206 182h7M220 182h2M232 182h9M243 182h1M66 183h1M69 183h2M72 183h5M81 183h4M87 183h1M107 183h1M114 183h2M118 183h1M177 183h11M206 183h6M218 183h2M231 183h10M243 183h1M66 184h1M69 184h2M73 184h5M81 184h6M107 184h1M115 184h4M177 184h5M187 184h1M206 184h4M217 184h1M230 184h11M243 184h1M66 185h1M70 185h2M73 185h6M82 185h5M106 185h1M116 185h3M177 185h1M188 185h1M206 185h2M215 185h1M229 185h12M243 185h1M67 186h1M70 186h2M74 186h5M83 186h4M106 186h1M117 186h1M177 186h1M188 186h1M206 186h1M227 186h13M242 186h1M67 187h1M71 187h2M75 187h5M84 187h3M107 187h1M117 187h1M177 187h1M187 187h2M205 187h1M226 187h14M242 187h1M67 188h1M71 188h2M75 188h6M85 188h2M108 188h1M117 188h1M177 188h13M205 188h1M224 188h16M242 188h1M67 189h1M70 189h1M72 189h2M76 189h5M86 189h2M108 189h1M117 189h1M177 189h13M206 189h1M223 189h17M242 189h1M68 190h1M71 190h3M76 190h6M87 190h1M107 190h1M117 190h1M177 190h14M207 190h1M221 190h18M241 190h1M68 191h1M71 191h1M73 191h2M77 191h6M86 191h2M107 191h2M117 191h1M177 191h14M207 191h1M218 191h21M241 191h1M68 192h1M71 192h4M77 192h6M86 192h2M107 192h3M117 192h1M177 192h13M208 192h1M216 192h23M241 192h1M68 193h1M71 193h2M74 193h2M78 193h6M87 193h1M107 193h4M117 193h1M177 193h10M188 193h1M208 193h1M213 193h25M241 193h1M69 194h1M72 194h5M79 194h6M87 194h1M106 194h6M117 194h1M177 194h4M188 194h1M208 194h28M240 194h1M69 195h1M72 195h2M75 195h2M79 195h7M87 195h1M105 195h8M117 195h1M177 195h1M188 195h1M208 195h27M240 195h1M69 196h1M72 196h3M76 196h2M80 196h7M104 196h10M117 196h1M177 196h1M188 196h1M208 196h26M237 196h1M240 196h1M70 197h1M73 197h6M81 197h5M103 197h12M117 197h1M176 197h1M188 197h1M207 197h26M236 197h1M239 197h1M70 198h1M73 198h3M77 198h2M81 198h5M103 198h1M105 198h11M117 198h1M176 198h1M189 198h1M207 198h24M235 198h2M239 198h1M70 199h1M73 199h4M78 199h2M82 199h4M102 199h1M106 199h12M176 199h1M189 199h1M206 199h24M233 199h2M239 199h1M71 200h1M74 200h7M83 200h4M102 200h1M107 200h11M176 200h1M188 200h3M206 200h23M232 200h2M238 200h1M71 201h1M74 201h4M79 201h2M83 201h4M102 201h1M108 201h10M176 201h1M183 201h9M206 201h21M230 201h2M238 201h1M71 202h1M74 202h5M80 202h2M84 202h4M101 202h1M109 202h9M176 202h1M180 202h12M206 202h19M229 202h1M238 202h1M72 203h1M75 203h8M85 203h3M101 203h2M110 203h8M176 203h17M206 203h18M227 203h1M237 203h1M72 204h1M75 204h5M81 204h3M86 204h2M101 204h3M111 204h7M176 204h17M206 204h16M226 204h1M237 204h1M73 205h1M76 205h5M82 205h2M87 205h1M100 205h1M102 205h3M112 205h6M176 205h17M206 205h14M224 205h1M236 205h1M73 206h1M76 206h6M83 206h2M86 206h2M101 206h1M103 206h3M112 206h1M114 206h4M176 206h17M206 206h12M222 206h1M236 206h1M73 207h1M76 207h7M84 207h2M102 207h5M108 207h1M113 207h1M115 207h3M176 207h16M208 207h8M220 207h1M230 207h1M236 207h1M74 208h1M77 208h7M103 208h4M109 208h1M114 208h1M116 208h3M176 208h15M210 208h3M228 208h1M235 208h1M37 209h45M103 209h16M176 209h15M212 209h57M35 210h2M269 210h2M34 211h1M271 211h2M32 212h2M273 212h1M30 213h2M274 213h2M29 214h1M276 214h2M27 215h2M278 215h1M25 216h2M279 216h2M23 217h2M281 217h2M22 218h1M283 218h2M20 219h2M285 219h1M18 220h2M286 220h2M16 221h2M288 221h2M15 222h1M290 222h2M13 223h2M292 223h1M11 224h2M293 224h2M9 225h2M295 225h2M8 226h1M297 226h2M6 227h2M299 227h1M4 228h2M300 228h1M3 229h1M301 229h2M1 230h2M303 230h1M0 231h1M304 231h1M62 257h174M61 258h176M61 259h2M235 259h2M61 260h1M236 260h1M209 261h20M207 262h24M206 263h26M206 264h26M206 265h26M207 266h24M209 267h20M63 340h1M234 340h1M63 341h2M233 341h2M63 342h172M64 343h170" />
<path stroke="#1a9fff" d="M148 8h14M142 9h26M138 10h10M162 10h10M135 11h7M168 11h7M132 12h6M172 12h6M129 13h11M175 13h6M127 14h15M178 14h5M125 15h16M180 15h5M123 16h4M130 16h11M182 16h5M121 17h4M129 17h9M159 17h3M184 17h5M120 18h3M125 18h9M162 18h3M186 18h4M118 19h9M165 19h2M188 19h4M117 20h5M190 20h3M115 21h3M191 21h4M114 22h3M193 22h3M113 23h2M130 23h19M174 23h1M194 23h3M111 24h3M124 24h10M148 24h8M176 24h2M196 24h3M110 25h3M119 25h8M156 25h5M178 25h2M197 25h3M109 26h2M115 26h7M161 26h3M180 26h2M198 26h3M108 27h2M113 27h6M164 27h4M182 27h2M199 27h3M107 28h2M110 28h7M168 28h3M184 28h1M201 28h2M106 29h8M171 29h2M186 29h1M202 29h2M105 30h8M173 30h3M203 30h2M104 31h4M109 31h3M176 31h2M204 31h2M103 32h3M109 32h3M178 32h2M205 32h2M102 33h2M109 33h3M180 33h2M205 33h3M101 34h2M109 34h2M182 34h2M206 34h3M100 35h2M108 35h2M184 35h1M206 35h4M99 36h2M107 36h3M185 36h2M207 36h4M98 37h2M107 37h2M144 37h10M187 37h2M208 37h4M97 38h2M106 38h2M136 38h7M154 38h6M162 38h5M189 38h1M208 38h5M96 39h2M99 39h1M105 39h2M131 39h4M152 39h2M159 39h3M166 39h6M190 39h1M208 39h6M95 40h5M104 40h2M128 40h2M141 40h9M151 40h1M161 40h3M170 40h5M192 40h1M209 40h6M94 41h5M103 41h1M124 41h2M134 41h15M150 41h1M163 41h3M174 41h5M193 41h1M210 41h6M93 42h5M102 42h1M121 42h2M129 42h19M149 42h2M164 42h5M177 42h4M194 42h1M210 42h7M93 43h4M100 43h2M118 43h2M126 43h17M148 43h2M165 43h5M171 43h1M180 43h3M195 43h2M211 43h6M92 44h4M99 44h1M116 44h1M122 44h14M139 44h7M147 44h3M166 44h5M173 44h1M182 44h3M197 44h1M212 44h6M91 45h4M98 45h1M114 45h1M120 45h25M146 45h3M167 45h6M175 45h2M184 45h3M198 45h1M212 45h7M90 46h3M97 46h1M112 46h1M117 46h27M145 46h4M167 46h8M176 46h3M186 46h3M199 46h1M213 46h7M90 47h2M96 47h1M110 47h1M115 47h25M144 47h4M168 47h8M178 47h4M188 47h3M200 47h1M214 47h6M89 48h2M94 48h2M108 48h1M112 48h21M143 48h5M169 48h9M180 48h4M190 48h2M201 48h1M214 48h7M88 49h2M93 49h1M106 49h1M110 49h18M142 49h6M170 49h10M181 49h5M191 49h3M202 49h1M215 49h7M88 50h2M92 50h1M104 50h1M109 50h16M141 50h6M158 50h3M171 50h10M182 50h5M193 50h2M203 50h1M216 50h6M87 51h2M91 51h1M103 51h1M107 51h14M140 51h7M155 51h3M161 51h2M173 51h9M184 51h5M194 51h2M204 51h1M216 51h7M86 52h2M90 52h1M101 52h1M105 52h14M139 52h7M154 52h2M163 52h3M180 52h3M185 52h5M195 52h3M205 52h1M217 52h7M86 53h2M89 53h1M100 53h1M103 53h13M138 53h8M153 53h2M166 53h5M182 53h2M187 53h5M196 53h3M206 53h1M217 53h7M85 54h2M88 54h1M98 54h1M102 54h12M137 54h9M152 54h2M171 54h3M184 54h1M188 54h5M198 54h2M207 54h1M218 54h3M222 54h3M84 55h2M87 55h1M97 55h1M100 55h12M133 55h2M136 55h9M151 55h2M174 55h2M185 55h1M190 55h4M199 55h2M207 55h1M219 55h3M223 55h3M84 56h3M96 56h1M99 56h11M129 56h5M135 56h8M150 56h2M176 56h2M186 56h1M191 56h4M200 56h2M208 56h1M219 56h3M223 56h3M83 57h3M94 57h1M98 57h11M127 57h6M134 57h5M149 57h2M177 57h2M187 57h1M192 57h4M201 57h2M209 57h1M220 57h3M224 57h3M83 58h2M93 58h1M96 58h11M124 58h9M134 58h3M148 58h2M178 58h2M188 58h1M190 58h1M193 58h4M202 58h2M210 58h1M220 58h7M82 59h2M92 59h1M95 59h10M122 59h10M133 59h3M147 59h2M179 59h2M189 59h1M191 59h1M194 59h4M203 59h2M210 59h1M221 59h7M81 60h2M91 60h1M94 60h10M120 60h12M133 60h2M145 60h3M180 60h2M190 60h1M192 60h1M195 60h4M204 60h2M211 60h1M221 60h8M81 61h2M93 61h9M118 61h13M132 61h3M144 61h2M181 61h2M191 61h1M193 61h2M196 61h4M205 61h2M212 61h1M222 61h2M226 61h3M80 62h2M92 62h9M116 62h12M132 62h3M143 62h2M147 62h1M182 62h1M191 62h2M194 62h2M197 62h4M205 62h2M222 62h2M226 62h4M80 63h2M87 63h1M90 63h10M114 63h11M131 63h5M142 63h2M146 63h2M183 63h1M192 63h1M194 63h8M206 63h2M213 63h1M223 63h1M227 63h3M79 64h2M89 64h9M113 64h10M131 64h5M141 64h2M146 64h2M183 64h1M191 64h2M194 64h9M207 64h2M214 64h1M223 64h2M227 64h4M79 65h2M88 65h9M111 65h9M130 65h6M140 65h2M145 65h3M175 65h1M183 65h1M190 65h3M194 65h10M208 65h2M214 65h1M223 65h2M228 65h3M78 66h2M87 66h9M110 66h8M130 66h5M139 66h2M145 66h3M175 66h1M183 66h1M189 66h3M194 66h10M208 66h2M215 66h1M224 66h1M228 66h4M78 67h2M86 67h9M109 67h7M129 67h1M138 67h2M145 67h3M175 67h1M183 67h1M188 67h3M194 67h11M209 67h2M215 67h1M224 67h2M229 67h3M77 68h2M83 68h1M85 68h9M107 68h8M129 68h1M137 68h2M145 68h3M175 68h2M182 68h1M186 68h5M195 68h11M210 68h2M216 68h1M225 68h1M229 68h4M77 69h2M85 69h8M106 69h7M128 69h1M136 69h2M145 69h3M175 69h2M182 69h1M184 69h6M196 69h10M210 69h2M225 69h2M230 69h3M77 70h2M84 70h8M105 70h7M125 70h2M128 70h1M135 70h2M145 70h3M174 70h3M181 70h9M197 70h10M211 70h2M217 70h1M225 70h2M230 70h3M76 71h2M80 71h1M83 71h2M86 71h5M104 71h6M123 71h3M127 71h1M135 71h1M145 71h3M174 71h3M181 71h8M190 71h1M198 71h10M212 71h1M217 71h1M226 71h1M230 71h4M76 72h2M79 72h1M82 72h2M85 72h5M103 72h6M121 72h4M127 72h1M134 72h2M144 72h5M174 72h3M180 72h9M190 72h2M199 72h9M212 72h2M218 72h1M226 72h1M231 72h3M75 73h2M81 73h2M84 73h5M102 73h6M119 73h4M127 73h1M133 73h2M144 73h5M173 73h4M180 73h8M189 73h1M191 73h2M199 73h10M213 73h2M218 73h1M226 73h2M231 73h4M75 74h2M80 74h3M84 74h4M101 74h5M117 74h4M127 74h1M133 74h2M141 74h8M172 74h5M180 74h7M190 74h3M200 74h9M213 74h2M219 74h1M227 74h1M231 74h4M74 75h2M80 75h2M83 75h4M100 75h5M115 75h4M125 75h1M127 75h1M133 75h2M140 75h2M144 75h6M171 75h6M180 75h5M186 75h1M191 75h3M201 75h9M214 75h2M219 75h1M227 75h1M232 75h4M74 76h3M79 76h2M82 76h4M100 76h4M114 76h3M123 76h3M127 76h1M133 76h3M140 76h1M145 76h5M170 76h7M180 76h4M186 76h2M191 76h4M201 76h9M214 76h2M227 76h2M232 76h4M74 77h2M78 77h2M81 77h4M99 77h4M113 77h3M121 77h6M128 77h1M133 77h3M140 77h1M145 77h6M169 77h8M181 77h3M187 77h1M192 77h4M202 77h9M215 77h1M220 77h1M228 77h1M232 77h4M73 78h3M78 78h1M81 78h1M83 78h2M98 78h4M111 78h3M116 78h1M119 78h8M128 78h1M134 78h3M140 78h1M142 78h2M145 78h7M168 78h11M181 78h3M187 78h1M189 78h1M193 78h3M202 78h9M215 78h2M220 78h1M228 78h1M232 78h5M73 79h2M77 79h2M80 79h1M82 79h2M97 79h4M110 79h3M115 79h1M118 79h7M129 79h1M134 79h3M140 79h4M145 79h7M168 79h8M179 79h1M182 79h2M188 79h1M190 79h1M194 79h3M203 79h9M216 79h1M221 79h1M228 79h1M233 79h4M72 80h2M76 80h2M79 80h4M97 80h3M109 80h3M113 80h2M117 80h6M126 80h2M129 80h1M135 80h3M140 80h4M145 80h7M168 80h7M179 80h1M182 80h2M188 80h1M190 80h2M194 80h3M203 80h9M216 80h2M221 80h1M228 80h2M233 80h5M72 81h2M75 81h2M79 81h1M81 81h1M96 81h3M108 81h2M112 81h1M115 81h6M124 81h5M130 81h1M136 81h3M141 81h1M143 81h1M145 81h7M168 81h7M177 81h1M179 81h1M183 81h1M188 81h1M191 81h1M195 81h3M204 81h8M216 81h2M221 81h1M229 81h1M233 81h5M72 82h2M75 82h2M78 82h1M80 82h2M95 82h3M107 82h2M111 82h1M114 82h6M123 82h6M130 82h1M137 82h2M141 82h1M145 82h7M168 82h7M176 82h4M183 82h1M189 82h1M192 82h1M195 82h3M204 82h9M217 82h1M229 82h1M233 82h5M71 83h2M74 83h2M77 83h4M94 83h4M106 83h2M110 83h1M113 83h5M121 83h6M128 83h2M131 83h1M138 83h2M142 83h1M145 83h7M168 83h7M176 83h1M178 83h1M183 83h1M189 83h1M192 83h2M196 83h3M205 83h8M217 83h2M222 83h1M229 83h1M233 83h6M71 84h2M74 84h1M77 84h1M79 84h1M94 84h3M105 84h2M109 84h1M111 84h6M120 84h5M126 84h4M131 84h1M139 84h1M142 84h2M145 84h7M168 84h7M178 84h1M183 84h1M189 84h1M193 84h1M197 84h2M205 84h8M217 84h2M222 84h1M229 84h1M234 84h5M71 85h4M76 85h1M78 85h2M93 85h3M104 85h2M108 85h1M110 85h6M119 85h4M124 85h4M132 85h1M139 85h1M143 85h8M168 85h7M177 85h1M183 85h1M189 85h2M194 85h1M197 85h3M206 85h8M218 85h1M222 85h1M229 85h1M234 85h5M70 86h4M76 86h1M78 86h1M92 86h3M103 86h2M107 86h1M109 86h6M117 86h5M123 86h3M132 86h1M139 86h1M144 86h6M169 86h6M176 86h2M182 86h1M190 86h1M194 86h1M198 86h2M206 86h8M218 86h2M230 86h1M234 86h6M70 87h4M75 87h1M77 87h2M92 87h2M102 87h2M106 87h1M108 87h6M116 87h4M121 87h4M132 87h1M139 87h1M145 87h5M170 87h7M182 87h1M190 87h1M195 87h1M198 87h2M207 87h7M218 87h2M223 87h1M230 87h1M234 87h6M70 88h3M75 88h3M91 88h3M101 88h2M105 88h1M108 88h4M115 88h3M120 88h3M132 88h1M139 88h2M145 88h4M170 88h7M181 88h1M190 88h1M195 88h1M198 88h3M207 88h7M219 88h1M223 88h1M230 88h1M234 88h6M69 89h3M74 89h1M76 89h2M91 89h2M101 89h2M104 89h1M107 89h4M114 89h4M119 89h3M129 89h1M131 89h1M140 89h1M145 89h4M171 89h6M180 89h1M190 89h1M196 89h1M199 89h2M207 89h8M219 89h1M223 89h1M230 89h1M234 89h4M239 89h2M69 90h3M74 90h3M90 90h2M100 90h2M103 90h2M106 90h4M114 90h2M117 90h4M127 90h3M131 90h1M140 90h2M146 90h3M171 90h5M179 90h1M189 90h2M196 90h1M199 90h3M207 90h8M219 90h2M223 90h1M230 90h1M235 90h3M239 90h2M69 91h2M73 91h1M75 91h2M90 91h2M99 91h2M103 91h1M105 91h5M113 91h2M116 91h4M126 91h4M131 91h1M141 91h1M146 91h3M171 91h4M178 91h1M188 91h2M196 91h2M200 91h2M208 91h7M219 91h2M230 91h1M235 91h6M69 92h2M73 92h3M89 92h2M98 92h2M102 92h1M104 92h5M115 92h4M125 92h4M132 92h1M141 92h2M147 92h2M171 92h4M177 92h1M187 92h2M194 92h1M197 92h1M200 92h2M208 92h7M220 92h1M224 92h1M230 92h1M235 92h6M68 93h2M72 93h1M74 93h2M89 93h2M98 93h2M101 93h1M103 93h5M114 93h4M123 93h3M129 93h5M142 93h1M147 93h2M171 93h3M176 93h1M186 93h2M197 93h1M200 93h2M208 93h7M220 93h1M224 93h1M230 93h1M235 93h7M68 94h2M72 94h3M88 94h2M97 94h2M100 94h2M103 94h4M113 94h4M122 94h1M126 94h7M134 94h1M142 94h2M148 94h1M170 94h3M175 94h1M185 94h3M195 94h1M198 94h1M201 94h1M209 94h6M220 94h1M224 94h1M230 94h1M235 94h7M68 95h2M71 95h1M73 95h2M88 95h1M96 95h2M100 95h1M102 95h4M112 95h4M123 95h8M135 95h1M143 95h3M148 95h2M170 95h2M174 95h1M185 95h5M198 95h1M201 95h2M209 95h7M220 95h2M224 95h1M230 95h1M235 95h7M68 96h2M71 96h3M87 96h2M96 96h2M99 96h1M101 96h5M112 96h3M121 96h8M134 96h3M144 96h3M149 96h2M169 96h2M173 96h1M184 96h1M187 96h4M198 96h1M201 96h2M209 96h7M220 96h2M224 96h1M230 96h1M235 96h7M67 97h2M70 97h4M87 97h1M95 97h2M98 97h2M101 97h4M111 97h4M119 97h16M136 97h2M147 97h1M150 97h2M168 97h2M173 97h1M183 97h2M190 97h3M198 97h1M201 97h2M209 97h7M220 97h2M224 97h1M230 97h1M235 97h8M67 98h4M72 98h1M86 98h2M94 98h2M97 98h2M100 98h4M110 98h4M117 98h9M137 98h2M148 98h1M151 98h2M167 98h2M172 98h1M182 98h2M192 98h2M199 98h1M201 98h2M209 98h7M220 98h2M224 98h1M230 98h1M235 98h8M67 99h2M70 99h3M86 99h1M94 99h2M97 99h2M100 99h4M109 99h4M115 99h9M139 99h1M149 99h1M152 99h2M166 99h2M172 99h1M181 99h2M193 99h2M199 99h1M202 99h1M210 99h6M221 99h1M224 99h1M230 99h1M235 99h8M67 100h6M85 100h2M93 100h2M96 100h2M99 100h4M109 100h3M113 100h8M140 100h1M150 100h1M153 100h2M165 100h2M171 100h1M180 100h2M194 100h2M199 100h1M202 100h2M210 100h6M221 100h1M224 100h1M230 100h1M235 100h8M66 101h6M85 101h2M93 101h2M96 101h1M99 101h4M108 101h3M112 101h2M150 101h1M154 101h2M164 101h2M171 101h1M180 101h1M194 101h2M199 101h1M202 101h2M210 101h6M221 101h1M224 101h1M230 101h1M235 101h3M239 101h5M66 102h2M69 102h3M85 102h1M92 102h2M95 102h2M98 102h4M107 102h3M111 102h2M155 102h2M162 102h3M180 102h1M193 102h3M199 102h1M202 102h2M210 102h6M221 102h1M224 102h1M230 102h1M235 102h3M239 102h5M66 103h6M84 103h2M92 103h4M98 103h4M107 103h3M111 103h1M156 103h7M193 103h1M195 103h1M199 103h1M202 103h2M210 103h5M221 103h1M224 103h1M230 103h1M235 103h3M239 103h5M66 104h5M84 104h1M91 104h5M97 104h4M106 104h4M111 104h1M193 104h1M195 104h1M200 104h1M202 104h2M210 104h5M221 104h1M224 104h1M230 104h1M235 104h3M239 104h5M66 105h5M83 105h2M91 105h5M97 105h4M106 105h3M110 105h2M192 105h2M195 105h1M200 105h1M202 105h2M211 105h4M221 105h1M224 105h1M230 105h1M235 105h3M239 105h5M65 106h6M83 106h2M91 106h4M96 106h4M105 106h4M110 106h1M192 106h1M195 106h2M200 106h1M203 106h1M211 106h4M221 106h1M224 106h1M230 106h1M235 106h3M239 106h6M65 107h5M83 107h1M90 107h5M96 107h4M105 107h4M110 107h1M192 107h1M194 107h3M200 107h1M203 107h1M211 107h4M221 107h1M224 107h1M230 107h1M235 107h3M239 107h6M65 108h5M83 108h1M90 108h4M95 108h4M104 108h5M110 108h1M191 108h2M194 108h1M196 108h1M200 108h1M203 108h1M211 108h4M221 108h1M224 108h1M230 108h1M234 108h11M65 109h5M82 109h2M89 109h5M95 109h4M104 109h4M110 109h1M191 109h1M193 109h2M196 109h1M200 109h1M203 109h1M211 109h3M220 109h2M224 109h1M230 109h1M234 109h11M65 110h5M82 110h1M89 110h5M95 110h4M103 110h5M109 110h2M190 110h2M193 110h1M196 110h1M200 110h1M202 110h2M212 110h2M220 110h2M224 110h1M229 110h1M234 110h3M238 110h7M64 111h5M82 111h1M89 111h4M94 111h5M103 111h4M109 111h1M190 111h1M192 111h2M196 111h1M200 111h1M202 111h2M212 111h1M220 111h2M229 111h1M234 111h3M238 111h8M64 112h4M81 112h2M88 112h5M94 112h4M103 112h4M109 112h1M189 112h2M192 112h1M197 112h1M200 112h1M202 112h2M220 112h2M229 112h1M234 112h3M238 112h8M64 113h4M81 113h2M88 113h5M94 113h4M102 113h5M109 113h1M189 113h1M191 113h1M197 113h1M202 113h2M220 113h1M223 113h1M229 113h1M234 113h3M238 113h8M64 114h4M81 114h1M88 114h5M94 114h4M102 114h4M108 114h2M188 114h4M197 114h1M199 114h1M202 114h2M220 114h1M223 114h1M229 114h1M233 114h13M64 115h5M81 115h1M87 115h5M93 115h5M102 115h4M108 115h2M187 115h4M197 115h1M199 115h1M202 115h2M220 115h1M223 115h1M228 115h1M233 115h3M237 115h9M64 116h2M81 116h1M87 116h5M93 116h4M101 116h5M107 116h3M187 116h3M197 116h1M199 116h1M202 116h2M219 116h2M223 116h1M228 116h1M233 116h3M237 116h9M64 117h2M80 117h2M87 117h5M93 117h4M101 117h4M107 117h3M186 117h3M197 117h2M202 117h1M219 117h2M228 117h1M233 117h3M237 117h9M63 118h3M80 118h1M87 118h5M93 118h4M101 118h4M106 118h1M109 118h1M185 118h3M197 118h2M202 118h1M219 118h1M222 118h1M228 118h1M232 118h3M236 118h4M241 118h6M63 119h4M80 119h1M87 119h4M93 119h4M101 119h4M106 119h1M109 119h2M141 119h12M184 119h2M197 119h2M201 119h2M219 119h1M222 119h1M227 119h1M232 119h3M236 119h11M63 120h5M80 120h1M87 120h4M92 120h5M100 120h4M105 120h3M110 120h1M141 120h12M155 120h16M183 120h2M197 120h2M201 120h2M218 120h2M227 120h1M232 120h3M236 120h11M63 121h5M80 121h1M86 121h5M92 121h5M100 121h3M104 121h1M107 121h4M141 121h13M155 121h16M197 121h2M201 121h2M218 121h1M227 121h1M231 121h3M236 121h3M240 121h7M63 122h5M80 122h1M86 122h5M92 122h5M100 122h2M103 122h1M109 122h3M140 122h14M156 122h15M197 122h2M201 122h1M218 122h1M221 122h1M226 122h1M231 122h3M235 122h4M240 122h7M63 123h5M80 123h1M86 123h5M92 123h4M100 123h2M103 123h1M111 123h2M140 123h5M150 123h5M156 123h15M197 123h2M200 123h2M217 123h2M221 123h1M226 123h1M231 123h3M235 123h12M63 124h5M79 124h2M86 124h5M92 124h4M100 124h2M103 124h2M140 124h5M150 124h5M157 124h13M197 124h3M201 124h1M217 124h1M220 124h1M226 124h1M230 124h3M235 124h3M239 124h8M63 125h4M79 125h1M86 125h5M92 125h4M100 125h2M103 125h3M139 125h5M151 125h4M157 125h6M197 125h3M201 125h1M217 125h1M220 125h1M225 125h1M230 125h3M234 125h4M239 125h8M63 126h3M79 126h1M86 126h5M92 126h4M100 126h2M103 126h5M139 126h5M146 126h3M151 126h5M158 126h5M197 126h3M216 126h2M225 126h1M230 126h2M234 126h13M63 127h3M79 127h1M86 127h5M92 127h4M99 127h3M103 127h6M138 127h5M145 127h5M151 127h5M158 127h13M197 127h3M216 127h1M219 127h1M224 127h1M229 127h3M233 127h4M238 127h9M62 128h4M79 128h1M85 128h6M92 128h4M99 128h2M102 128h5M138 128h5M145 128h5M152 128h4M158 128h13M198 128h2M215 128h2M219 128h1M224 128h1M229 128h2M233 128h4M238 128h10M62 129h4M79 129h1M85 129h5M92 129h4M99 129h2M102 129h3M137 129h5M145 129h5M152 129h5M158 129h13M199 129h1M215 129h1M218 129h1M223 129h1M228 129h2M233 129h3M237 129h11M62 130h5M79 130h1M85 130h5M92 130h4M99 130h2M102 130h2M137 130h5M145 130h5M153 130h4M159 130h11M199 130h1M214 130h2M218 130h1M223 130h1M228 130h2M232 130h4M237 130h11M62 131h5M79 131h1M85 131h5M92 131h4M99 131h2M102 131h1M137 131h5M147 131h4M153 131h4M159 131h9M199 131h1M214 131h1M217 131h1M222 131h1M227 131h2M232 131h3M236 131h12M62 132h5M79 132h1M85 132h5M92 132h4M99 132h2M102 132h1M137 132h5M147 132h4M153 132h5M200 132h1M213 132h2M222 132h1M227 132h2M231 132h4M236 132h12M62 133h5M79 133h1M85 133h5M92 133h4M99 133h1M101 133h1M136 133h16M154 133h4M200 133h1M213 133h1M216 133h1M221 133h1M226 133h2M231 133h3M236 133h12M62 134h5M79 134h1M85 134h5M92 134h4M99 134h1M101 134h1M123 134h1M136 134h16M154 134h20M200 134h1M212 134h1M221 134h1M226 134h2M230 134h4M235 134h10M246 134h2M62 135h5M79 135h1M85 135h6M92 135h4M99 135h1M101 135h1M122 135h2M136 135h16M155 135h18M200 135h1M211 135h2M215 135h1M220 135h1M225 135h2M230 135h3M235 135h10M246 135h2M62 136h5M79 136h1M85 136h6M92 136h4M100 136h1M122 136h2M141 136h11M155 136h17M200 136h1M211 136h1M214 136h1M220 136h1M225 136h2M229 136h4M234 136h10M246 136h2M62 137h6M79 137h1M85 137h6M92 137h4M100 137h1M122 137h2M155 137h16M200 137h1M210 137h1M219 137h1M224 137h2M228 137h4M234 137h10M246 137h2M62 138h6M79 138h1M85 138h6M92 138h4M100 138h1M122 138h3M200 138h1M209 138h2M213 138h1M218 138h1M223 138h2M228 138h4M233 138h10M246 138h2M62 139h6M79 139h1M85 139h6M92 139h5M99 139h1M122 139h3M200 139h1M208 139h2M212 139h1M218 139h1M223 139h2M227 139h4M233 139h10M246 139h2M62 140h6M85 140h6M92 140h5M99 140h1M121 140h5M179 140h1M200 140h1M207 140h2M211 140h1M217 140h1M222 140h2M227 140h4M232 140h10M246 140h2M62 141h6M86 141h5M92 141h5M99 141h1M121 141h1M123 141h1M125 141h2M179 141h2M201 141h1M207 141h1M216 141h1M221 141h2M226 141h4M231 141h11M246 141h2M62 142h6M80 142h1M86 142h5M93 142h4M98 142h2M121 142h1M123 142h1M126 142h2M179 142h2M201 142h1M206 142h1M210 142h1M215 142h1M220 142h3M225 142h4M231 142h10M245 142h3M62 143h6M80 143h1M86 143h5M93 143h4M98 143h2M120 143h2M123 143h1M126 143h2M178 143h2M181 143h1M202 143h1M205 143h1M209 143h1M214 143h1M220 143h2M224 143h5M230 143h11M244 143h4M62 144h6M80 144h1M86 144h6M93 144h4M98 144h2M119 144h3M123 144h1M126 144h2M177 144h3M181 144h1M202 144h1M204 144h2M208 144h1M213 144h2M219 144h2M224 144h4M229 144h11M244 144h4M62 145h6M80 145h1M86 145h6M93 145h3M97 145h1M99 145h1M118 145h3M123 145h1M126 145h1M175 145h4M181 145h2M202 145h1M207 145h1M213 145h1M218 145h2M223 145h4M229 145h10M243 145h5M62 146h6M80 146h1M86 146h6M93 146h3M97 146h1M99 146h1M117 146h4M123 146h4M174 146h5M180 146h1M182 146h4M202 146h1M206 146h1M212 146h1M217 146h2M222 146h5M228 146h11M243 146h5M62 147h7M80 147h1M86 147h6M94 147h2M97 147h1M100 147h1M117 147h4M123 147h3M174 147h5M180 147h1M182 147h9M202 147h1M205 147h1M211 147h1M216 147h3M221 147h5M227 147h11M242 147h6M62 148h7M76 148h1M87 148h6M94 148h2M97 148h1M100 148h1M118 148h2M121 148h1M123 148h3M174 148h4M179 148h2M183 148h6M202 148h1M210 148h1M215 148h3M220 148h5M227 148h10M241 148h7M62 149h2M65 149h4M76 149h1M81 149h1M87 149h6M94 149h2M97 149h1M100 149h2M118 149h2M122 149h4M175 149h3M179 149h1M183 149h1M202 149h1M208 149h2M214 149h3M219 149h5M226 149h11M240 149h8M62 150h2M65 150h4M76 150h2M81 150h1M87 150h6M96 150h1M101 150h1M117 150h2M120 150h1M122 150h4M177 150h1M182 150h1M202 150h1M207 150h2M213 150h3M219 150h4M225 150h11M240 150h8M62 151h2M65 151h4M76 151h2M81 151h1M87 151h6M96 151h1M102 151h1M116 151h3M120 151h1M122 151h4M177 151h1M181 151h1M201 151h2M206 151h2M212 151h3M218 151h4M224 151h11M239 151h9M62 152h2M65 152h5M76 152h2M81 152h1M88 152h6M96 152h1M113 152h5M119 152h2M122 152h5M177 152h1M181 152h1M201 152h2M205 152h1M211 152h3M217 152h5M223 152h12M238 152h10M62 153h2M65 153h5M77 153h2M88 153h6M95 153h1M117 153h1M119 153h2M122 153h5M176 153h1M181 153h1M201 153h2M204 153h1M210 153h3M215 153h6M222 153h12M237 153h11M62 154h2M66 154h4M77 154h2M82 154h1M88 154h6M95 154h1M116 154h1M118 154h3M122 154h6M176 154h1M181 154h1M200 154h3M209 154h2M214 154h19M237 154h8M246 154h2M63 155h2M66 155h3M77 155h2M82 155h1M88 155h6M95 155h1M115 155h1M117 155h4M122 155h6M176 155h1M178 155h2M181 155h1M199 155h4M207 155h3M213 155h19M236 155h11M63 156h2M66 156h5M76 156h4M89 156h4M94 156h1M115 156h1M117 156h5M123 156h6M176 156h1M178 156h3M182 156h1M198 156h4M206 156h3M212 156h19M235 156h9M245 156h2M63 157h2M66 157h5M76 157h4M83 157h1M89 157h4M94 157h1M115 157h1M117 157h5M123 157h6M176 157h1M178 157h1M182 157h2M197 157h5M204 157h4M211 157h19M234 157h10M245 157h2M63 158h2M67 158h3M76 158h4M83 158h1M89 158h4M94 158h1M115 158h1M117 158h5M123 158h7M176 158h2M182 158h3M196 158h6M203 158h3M209 158h20M233 158h10M245 158h2M63 159h2M67 159h3M80 159h1M83 159h1M89 159h4M94 159h1M115 159h1M117 159h5M123 159h8M175 159h3M182 159h3M195 159h6M202 159h3M208 159h20M232 159h10M245 159h2M63 160h2M67 160h3M71 160h1M80 160h1M84 160h1M90 160h4M95 160h1M114 160h1M116 160h6M123 160h9M174 160h5M183 160h3M194 160h2M200 160h1M202 160h1M207 160h20M231 160h11M245 160h2M63 161h2M68 161h3M77 161h1M84 161h1M90 161h4M95 161h1M114 161h1M116 161h5M122 161h11M173 161h2M176 161h3M183 161h3M201 161h1M205 161h21M230 161h11M244 161h3M63 162h2M68 162h3M77 162h1M81 162h1M84 162h1M91 162h3M95 162h1M114 162h1M116 162h5M122 162h1M128 162h5M172 162h2M175 162h5M183 162h3M202 162h1M204 162h21M229 162h12M244 162h3M63 163h2M68 163h3M72 163h1M77 163h1M81 163h1M85 163h1M91 163h3M95 163h1M113 163h1M117 163h3M121 163h1M130 163h4M171 163h2M175 163h5M181 163h1M183 163h3M202 163h1M204 163h20M228 163h12M243 163h4M63 164h2M69 164h3M81 164h1M85 164h1M91 164h2M94 164h2M110 164h3M118 164h1M120 164h1M170 164h2M175 164h5M184 164h2M202 164h1M204 164h19M227 164h12M242 164h5M64 165h2M69 165h3M81 165h2M92 165h1M94 165h1M107 165h5M119 165h1M168 165h2M176 165h4M184 165h2M203 165h1M205 165h17M226 165h12M242 165h4M64 166h2M69 166h3M73 166h1M78 166h1M82 166h1M86 166h1M93 166h1M103 166h9M118 166h1M166 166h3M172 166h8M184 166h2M203 166h1M205 166h15M225 166h12M241 166h5M64 167h2M70 167h3M78 167h2M82 167h2M86 167h1M93 167h1M110 167h2M117 167h1M164 167h9M178 167h2M181 167h2M184 167h2M203 167h1M205 167h9M215 167h4M223 167h14M241 167h5M64 168h3M70 168h3M74 168h1M79 168h1M82 168h2M87 168h1M92 168h2M110 168h2M117 168h1M178 168h2M185 168h1M203 168h1M205 168h13M222 168h14M240 168h3M244 168h2M64 169h3M70 169h5M79 169h1M83 169h2M87 169h1M92 169h2M110 169h1M117 169h2M178 169h2M185 169h1M203 169h1M205 169h11M221 169h14M239 169h3M244 169h2M64 170h3M71 170h5M80 170h2M83 170h2M91 170h3M109 170h2M117 170h3M178 170h1M180 170h4M185 170h1M204 170h1M206 170h3M210 170h5M219 170h15M239 170h3M244 170h2M64 171h3M71 171h5M79 171h7M88 171h1M91 171h3M109 171h2M118 171h4M178 171h1M180 171h4M185 171h1M205 171h1M207 171h6M218 171h15M238 171h3M244 171h2M65 172h3M72 172h4M80 172h3M84 172h2M91 172h3M108 172h2M118 172h7M177 172h1M179 172h5M185 172h1M205 172h1M207 172h5M216 172h16M237 172h3M243 172h2M65 173h3M72 173h5M80 173h7M89 173h1M91 173h2M107 173h3M119 173h10M176 173h1M178 173h6M185 173h1M204 173h2M207 173h3M215 173h8M224 173h7M236 173h4M243 173h2M65 174h4M73 174h3M80 174h7M91 174h2M107 174h3M120 174h16M175 174h1M177 174h8M186 174h1M203 174h2M206 174h2M213 174h8M223 174h7M235 174h4M243 174h2M65 175h4M73 175h5M81 175h7M91 175h1M106 175h3M110 175h2M120 175h1M122 175h12M174 175h1M176 175h9M186 175h1M202 175h4M211 175h8M222 175h7M234 175h4M243 175h2M65 176h2M68 176h1M74 176h3M78 176h1M82 176h6M91 176h1M105 176h4M110 176h3M120 176h1M123 176h8M174 176h1M176 176h9M186 176h1M200 176h3M205 176h1M209 176h8M221 176h7M233 176h4M243 176h2M66 177h4M74 177h6M82 177h7M91 177h1M105 177h4M110 177h4M120 177h1M174 177h1M176 177h9M186 177h2M206 177h1M208 177h7M220 177h7M231 177h6M242 177h2M66 178h4M75 178h3M79 178h1M81 178h1M83 178h7M91 178h1M105 178h4M111 178h4M119 178h2M174 178h1M177 178h8M186 178h2M206 178h1M208 178h5M219 178h6M230 178h6M242 178h2M66 179h2M69 179h2M75 179h4M80 179h2M83 179h7M92 179h1M105 179h3M109 179h1M112 179h4M119 179h1M174 179h2M177 179h9M187 179h2M206 179h1M208 179h3M218 179h6M228 179h7M242 179h2M66 180h2M69 180h2M76 180h3M81 180h1M83 180h8M92 180h1M106 180h2M109 180h2M113 180h4M119 180h1M175 180h1M181 180h5M187 180h3M205 180h1M207 180h2M216 180h7M225 180h9M242 180h2M66 181h2M70 181h2M76 181h4M81 181h1M84 181h5M91 181h2M106 181h2M109 181h3M114 181h4M119 181h1M174 181h3M178 181h8M187 181h4M204 181h2M215 181h6M223 181h10M242 181h2M67 182h2M70 182h2M77 182h3M85 182h3M89 182h5M106 182h2M109 182h4M115 182h3M119 182h1M174 182h3M188 182h12M205 182h1M213 182h7M222 182h10M241 182h2M67 183h2M71 183h1M77 183h4M85 183h2M88 183h7M106 183h1M108 183h6M116 183h2M119 183h2M173 183h4M188 183h1M194 183h8M205 183h1M212 183h6M220 183h11M241 183h2M67 184h2M71 184h2M78 184h3M87 184h2M93 184h3M105 184h2M108 184h7M119 184h2M173 184h4M182 184h5M188 184h1M200 184h2M205 184h1M210 184h7M218 184h12M241 184h2M67 185h3M72 185h1M79 185h3M87 185h1M94 185h3M105 185h1M107 185h9M119 185h2M173 185h4M178 185h10M189 185h1M199 185h2M205 185h1M208 185h7M216 185h13M241 185h2M68 186h2M72 186h2M79 186h4M87 186h1M96 186h2M105 186h1M107 186h10M118 186h4M173 186h4M178 186h10M189 186h1M197 186h2M205 186h1M207 186h20M240 186h2M68 187h3M73 187h2M80 187h4M87 187h1M98 187h2M106 187h1M108 187h9M118 187h4M174 187h3M178 187h9M189 187h1M195 187h3M204 187h1M206 187h20M240 187h2M68 188h3M73 188h2M81 188h4M87 188h3M100 188h2M107 188h1M109 188h8M118 188h4M174 188h3M190 188h1M193 188h3M202 188h3M206 188h18M240 188h2M68 189h2M71 189h1M74 189h2M81 189h5M88 189h4M106 189h2M109 189h8M118 189h4M175 189h2M190 189h1M200 189h6M207 189h16M240 189h2M69 190h2M74 190h2M82 190h5M88 190h5M105 190h2M108 190h9M118 190h3M175 190h2M191 190h1M197 190h4M205 190h2M208 190h13M239 190h2M69 191h2M72 191h1M75 191h2M83 191h3M88 191h5M105 191h2M109 191h8M118 191h3M175 191h2M191 191h1M205 191h2M208 191h10M239 191h2M69 192h2M75 192h2M83 192h3M88 192h5M106 192h1M110 192h7M118 192h2M175 192h2M190 192h4M205 192h3M209 192h7M239 192h2M69 193h2M73 193h1M76 193h2M84 193h3M88 193h4M106 193h1M111 193h6M118 193h2M175 193h2M187 193h1M189 193h1M205 193h3M209 193h4M238 193h3M70 194h2M77 194h2M85 194h2M88 194h3M104 194h2M112 194h5M118 194h1M174 194h3M181 194h7M189 194h1M206 194h2M236 194h4M70 195h2M74 195h1M77 195h2M86 195h1M88 195h2M103 195h2M113 195h4M118 195h1M174 195h3M178 195h10M189 195h1M207 195h1M235 195h5M70 196h2M75 196h1M78 196h2M87 196h2M102 196h2M114 196h3M118 196h1M173 196h4M178 196h10M189 196h1M206 196h2M234 196h3M238 196h2M71 197h2M79 197h2M86 197h2M102 197h1M115 197h2M118 197h1M173 197h3M177 197h11M189 197h1M205 197h2M233 197h3M237 197h2M71 198h2M76 198h1M79 198h2M86 198h1M101 198h2M104 198h1M116 198h1M118 198h1M172 198h4M177 198h12M190 198h1M195 198h1M203 198h4M231 198h4M237 198h2M71 199h2M77 199h1M80 199h2M86 199h2M101 199h1M103 199h3M118 199h1M170 199h3M174 199h2M177 199h12M190 199h1M193 199h2M201 199h3M205 199h1M230 199h3M235 199h4M72 200h2M81 200h2M87 200h1M101 200h1M103 200h4M118 200h1M174 200h2M177 200h11M191 200h3M205 200h1M229 200h3M234 200h4M72 201h2M78 201h1M81 201h2M87 201h2M100 201h2M103 201h5M118 201h1M174 201h2M177 201h6M192 201h1M205 201h1M227 201h3M232 201h6M72 202h2M79 202h1M82 202h2M88 202h1M100 202h1M102 202h7M118 202h1M174 202h2M177 202h3M192 202h1M205 202h1M225 202h4M230 202h8M73 203h2M83 203h2M88 203h1M100 203h1M103 203h7M118 203h1M174 203h2M193 203h1M205 203h1M224 203h3M228 203h9M73 204h2M80 204h1M84 204h2M88 204h1M99 204h2M104 204h7M118 204h1M174 204h2M193 204h1M205 204h1M222 204h4M227 204h10M74 205h2M81 205h1M84 205h3M88 205h1M99 205h1M101 205h1M105 205h7M118 205h1M174 205h2M193 205h1M205 205h1M220 205h4M225 205h11M74 206h2M82 206h1M85 206h1M88 206h1M90 206h2M97 206h4M102 206h1M106 206h6M113 206h1M118 206h2M173 206h3M193 206h4M202 206h2M205 206h1M218 206h4M223 206h13M74 207h2M83 207h1M86 207h4M100 207h2M107 207h1M109 207h4M114 207h1M118 207h2M173 207h3M192 207h2M204 207h4M216 207h4M221 207h9M231 207h5M75 208h2M84 208h5M101 208h2M107 208h2M110 208h4M115 208h1M119 208h1M173 208h3M191 208h2M205 208h5M213 208h15M229 208h6M82 209h3M86 209h1M91 209h2M101 209h2M119 209h1M173 209h3M191 209h2M201 209h2M207 209h1M209 209h3M37 210h46M90 210h1M101 210h92M203 210h1M211 210h58M35 211h44M81 211h1M98 211h1M101 211h18M176 211h17M195 211h1M212 211h1M215 211h56M34 212h44M80 212h1M83 212h2M97 212h3M101 212h18M176 212h17M194 212h3M209 212h2M213 212h1M216 212h57M32 213h44M79 213h1M82 213h3M88 213h2M93 213h1M97 213h22M176 213h21M200 213h1M204 213h2M209 213h3M214 213h1M218 213h56M30 214h45M77 214h2M81 214h3M87 214h2M92 214h27M176 214h26M205 214h2M210 214h3M215 214h2M219 214h57M29 215h43M73 215h1M76 215h1M78 215h1M81 215h2M86 215h2M91 215h1M97 215h5M103 215h16M176 215h15M192 215h5M202 215h1M206 215h2M211 215h2M215 215h1M217 215h1M220 215h1M222 215h56M27 216h44M74 216h2M77 216h2M80 216h1M82 216h1M85 216h2M90 216h1M97 216h4M103 216h16M176 216h15M193 216h4M203 216h1M207 216h2M211 216h1M213 216h1M215 216h2M218 216h2M223 216h56M25 217h45M76 217h2M80 217h1M82 217h1M85 217h2M89 217h1M98 217h2M103 217h16M176 217h15M194 217h2M204 217h1M207 217h2M211 217h1M213 217h1M216 217h2M224 217h57M23 218h46M76 218h1M79 218h1M81 218h1M85 218h2M89 218h1M103 218h16M176 218h15M204 218h1M207 218h2M212 218h1M214 218h1M217 218h1M225 218h58M22 219h46M76 219h3M80 219h1M84 219h2M88 219h1M103 219h16M176 219h15M205 219h1M208 219h2M213 219h1M215 219h3M226 219h59M20 220h47M80 220h1M83 220h2M88 220h1M103 220h16M176 220h15M205 220h1M209 220h2M213 220h1M227 220h59M18 221h48M80 221h3M84 221h1M87 221h1M103 221h16M176 221h15M206 221h1M209 221h1M211 221h3M228 221h60M16 222h49M84 222h3M103 222h16M176 222h15M207 222h3M229 222h61M15 223h49M103 223h16M176 223h15M230 223h62M13 224h50M103 224h16M176 224h15M231 224h62M11 225h51M103 225h16M176 225h15M232 225h63M9 226h52M103 226h16M176 226h15M233 226h64M8 227h52M103 227h16M176 227h15M234 227h65M6 228h53M103 228h16M176 228h15M235 228h65M4 229h54M103 229h16M176 229h15M236 229h65M3 230h54M103 230h16M176 230h15M237 230h66M1 231h55M103 231h16M176 231h15M238 231h66M0 232h305M0 233h2M303 233h2M0 234h1M304 234h1M0 235h1M304 235h1M0 236h1M304 236h1M0 237h1M304 237h1M0 238h1M304 238h1M0 239h1M304 239h1M0 240h1M304 240h1M0 241h1M304 241h1M0 242h1M304 242h1M61 256h176M60 257h2M236 257h2M60 258h1M237 258h1M60 259h1M63 259h172M237 259h1M60 260h1M62 260h174M237 260h1M60 261h149M229 261h9M60 262h1M62 262h145M231 262h5M237 262h1M60 263h1M62 263h144M232 263h4M237 263h1M60 264h1M62 264h144M232 264h4M237 264h1M60 265h1M62 265h144M232 265h4M237 265h1M60 266h1M62 266h145M231 266h5M237 266h1M60 267h1M62 267h147M229 267h7M237 267h1M60 268h1M62 268h174M237 268h1M60 269h1M62 269h174M237 269h1M60 270h1M62 270h174M237 270h1M60 271h1M62 271h174M237 271h1M60 272h1M62 272h174M237 272h1M60 273h1M62 273h174M237 273h1M60 274h1M62 274h174M237 274h1M60 275h1M62 275h174M237 275h1M60 276h1M62 276h174M237 276h1M60 277h1M62 277h174M237 277h1M60 278h1M62 278h174M237 278h1M60 279h1M62 279h174M237 279h1M60 280h1M62 280h174M237 280h1M60 281h1M62 281h174M237 281h1M60 282h1M62 282h174M237 282h1M60 283h1M62 283h174M237 283h1M60 284h1M62 284h174M237 284h1M60 285h1M62 285h174M237 285h1M60 286h1M62 286h174M237 286h1M60 287h1M62 287h174M237 287h1M60 288h1M62 288h174M237 288h1M60 289h1M62 289h174M237 289h1M60 290h1M62 290h174M237 290h1M60 291h1M62 291h174M237 291h1M60 292h1M62 292h174M237 292h1M60 293h1M62 293h174M237 293h1M60 294h1M62 294h174M237 294h1M60 295h1M62 295h174M237 295h1M60 296h1M62 296h174M237 296h1M60 297h1M62 297h174M237 297h1M60 298h1M62 298h174M237 298h1M60 299h1M62 299h174M237 299h1M60 300h1M62 300h174M237 300h1M60 301h1M62 301h174M237 301h1M60 302h1M62 302h174M237 302h1M60 303h1M62 303h174M237 303h1M60 304h1M62 304h174M237 304h1M60 305h1M62 305h174M237 305h1M60 306h1M62 306h174M237 306h1M60 307h1M62 307h174M237 307h1M60 308h1M62 308h174M237 308h1M60 309h1M62 309h174M237 309h1M60 310h1M62 310h174M237 310h1M60 311h1M62 311h174M237 311h1M60 312h1M62 312h174M237 312h1M60 313h1M62 313h174M237 313h1M60 314h1M62 314h174M237 314h1M60 315h1M62 315h174M237 315h1M60 316h1M62 316h174M237 316h1M60 317h1M62 317h174M237 317h1M60 318h1M62 318h174M237 318h1M60 319h1M62 319h174M237 319h1M60 320h1M62 320h174M237 320h1M60 321h1M62 321h174M237 321h1M60 322h1M62 322h174M237 322h1M60 323h1M62 323h174M237 323h1M60 324h1M62 324h174M237 324h1M60 325h1M62 325h174M237 325h1M60 326h1M62 326h174M237 326h1M60 327h1M62 327h174M237 327h1M60 328h1M62 328h174M237 328h1M60 329h1M62 329h174M237 329h1M60 330h1M62 330h174M237 330h1M60 331h1M62 331h174M237 331h1M60 332h1M62 332h174M237 332h1M60 333h1M62 333h174M237 333h1M60 334h1M62 334h174M237 334h1M60 335h1M62 335h174M237 335h1M60 336h1M62 336h174M237 336h1M60 337h1M62 337h174M237 337h1M60 338h1M62 338h174M237 338h1M60 339h1M62 339h174M237 339h1M60 340h1M62 340h1M64 340h170M235 340h1M237 340h1M60 341h1M62 341h1M65 341h168M235 341h1M237 341h1M60 342h1M62 342h1M235 342h1M237 342h1M60 343h1M62 343h2M234 343h2M237 343h1M60 344h1M63 344h172M237 344h1M60 345h1M237 345h1M60 346h1M237 346h1M60 347h1M237 347h1M60 348h2M236 348h2M61 349h176" />
<path stroke="#000000" d="M154 39h5M152 40h9M151 41h12M151 42h13M150 43h15M150 44h16M149 45h18M149 46h18M148 47h20M148 48h21M148 49h22M147 50h11M161 50h10M147 51h8M158 51h3M163 51h10M146 52h8M156 52h7M166 52h14M146 53h7M155 53h11M171 53h11M146 54h6M154 54h17M174 54h10M145 55h6M153 55h21M176 55h9M143 56h7M152 56h24M178 56h8M139 57h10M151 57h26M179 57h8M137 58h11M150 58h28M180 58h8M136 59h11M149 59h30M181 59h8M135 60h10M148 60h32M182 60h8M135 61h9M146 61h35M183 61h8M135 62h8M145 62h2M148 62h34M183 62h8M136 63h6M144 63h2M148 63h35M184 63h8M136 64h5M143 64h3M148 64h35M184 64h7M136 65h4M142 65h3M148 65h27M176 65h7M184 65h6M135 66h4M141 66h4M148 66h27M176 66h7M184 66h5M130 67h8M140 67h5M148 67h27M176 67h7M184 67h4M130 68h7M139 68h6M148 68h27M177 68h5M183 68h3M129 69h7M138 69h7M148 69h27M177 69h5M183 69h1M129 70h6M137 70h8M148 70h26M177 70h4M128 71h7M136 71h9M148 71h26M177 71h4M128 72h6M136 72h8M149 72h25M177 72h3M128 73h5M135 73h9M149 73h24M177 73h3M128 74h5M135 74h6M149 74h23M177 74h3M128 75h5M135 75h5M142 75h2M150 75h21M177 75h3M185 75h1M128 76h5M136 76h4M141 76h4M150 76h20M177 76h3M184 76h2M129 77h4M136 77h4M141 77h4M151 77h18M177 77h4M184 77h3M129 78h5M137 78h3M141 78h1M144 78h1M152 78h16M179 78h2M184 78h3M130 79h4M137 79h3M144 79h1M152 79h16M176 79h3M180 79h2M184 79h4M130 80h5M138 80h2M144 80h1M152 80h16M175 80h4M180 80h2M184 80h4M131 81h5M139 81h2M142 81h1M144 81h1M152 81h16M175 81h2M178 81h1M180 81h3M184 81h4M131 82h6M139 82h2M142 82h3M152 82h16M175 82h1M180 82h3M184 82h5M132 83h6M140 83h2M143 83h2M152 83h16M175 83h1M177 83h1M179 83h4M184 83h5M132 84h7M140 84h2M144 84h1M152 84h16M175 84h3M179 84h4M184 84h5M133 85h6M140 85h3M151 85h17M175 85h2M178 85h5M184 85h5M133 86h6M140 86h4M150 86h19M175 86h1M178 86h4M183 86h7M133 87h6M140 87h5M150 87h20M177 87h5M183 87h7M133 88h6M141 88h4M149 88h21M177 88h4M182 88h8M132 89h8M141 89h4M149 89h22M177 89h3M181 89h9M132 90h8M142 90h4M149 90h22M176 90h3M180 90h9M132 91h9M142 91h4M149 91h22M175 91h3M179 91h9M133 92h8M143 92h4M149 92h22M175 92h2M178 92h9M134 93h8M143 93h4M149 93h22M174 93h2M177 93h9M133 94h1M135 94h7M144 94h4M149 94h21M173 94h2M176 94h9M131 95h4M136 95h7M146 95h2M150 95h20M172 95h2M175 95h10M129 96h5M137 96h7M147 96h2M151 96h18M171 96h2M174 96h10M185 96h2M135 97h1M138 97h9M148 97h2M152 97h16M170 97h3M174 97h9M185 97h5M126 98h11M139 98h9M149 98h2M153 98h14M169 98h3M173 98h9M184 98h8M124 99h15M140 99h9M150 99h2M154 99h12M168 99h4M173 99h8M183 99h10M121 100h19M141 100h9M151 100h2M155 100h10M167 100h4M172 100h8M182 100h12M114 101h36M151 101h3M156 101h8M166 101h5M172 101h8M181 101h13M113 102h42M157 102h5M165 102h15M181 102h12M112 103h44M163 103h30M194 103h1M112 104h81M194 104h1M112 105h80M194 105h1M111 106h81M193 106h2M111 107h81M193 107h1M111 108h80M193 108h1M195 108h1M111 109h80M192 109h1M195 109h1M111 110h79M192 110h1M194 110h2M110 111h80M191 111h1M194 111h2M110 112h79M191 112h1M193 112h4M110 113h79M190 113h1M192 113h5M110 114h78M192 114h5M110 115h77M191 115h6M110 116h77M190 116h7M110 117h76M189 117h8M107 118h2M110 118h75M188 118h9M107 119h2M111 119h30M153 119h31M186 119h11M108 120h2M111 120h30M153 120h2M171 120h12M185 120h12M105 121h2M111 121h30M154 121h1M171 121h26M104 122h5M112 122h28M154 122h2M171 122h26M104 123h7M113 123h27M145 123h5M155 123h1M171 123h26M105 124h35M145 124h5M155 124h2M170 124h27M106 125h33M144 125h7M155 125h2M163 125h34M108 126h31M144 126h2M149 126h2M156 126h2M163 126h34M109 127h29M143 127h2M150 127h1M156 127h2M171 127h26M107 128h31M143 128h2M150 128h2M156 128h2M171 128h27M105 129h32M142 129h3M150 129h2M157 129h1M171 129h28M104 130h33M142 130h3M150 130h3M157 130h2M170 130h29M103 131h34M142 131h5M151 131h2M157 131h2M168 131h31M103 132h34M142 132h5M151 132h2M158 132h42M102 133h34M152 133h2M158 133h42M102 134h21M124 134h12M152 134h2M174 134h26M102 135h20M124 135h12M152 135h3M173 135h27M101 136h21M124 136h17M152 136h3M172 136h28M101 137h21M124 137h31M171 137h29M101 138h21M125 138h75M100 139h22M125 139h75M100 140h21M126 140h53M180 140h20M100 141h21M124 141h1M127 141h52M181 141h20M100 142h21M124 142h2M128 142h51M181 142h20M100 143h20M124 143h2M128 143h50M182 143h20M100 144h19M124 144h2M128 144h49M182 144h20M98 145h1M100 145h18M124 145h2M127 145h48M183 145h19M98 146h1M100 146h17M127 146h47M186 146h16M98 147h2M101 147h16M126 147h48M191 147h11M98 148h2M101 148h17M126 148h48M189 148h13M98 149h2M102 149h16M126 149h49M184 149h18M97 150h4M102 150h15M126 150h51M183 150h19M97 151h5M103 151h13M126 151h51M182 151h19M97 152h16M127 152h50M182 152h19M96 153h21M127 153h49M182 153h19M96 154h20M128 154h48M182 154h18M96 155h19M128 155h48M182 155h17M95 156h20M129 156h47M183 156h15M95 157h20M129 157h47M184 157h13M95 158h20M130 158h46M185 158h11M95 159h20M131 159h44M185 159h10M96 160h18M132 160h42M186 160h8M196 160h4M96 161h18M133 161h40M175 161h1M186 161h15M96 162h18M123 162h5M133 162h39M174 162h1M186 162h16M96 163h17M122 163h8M134 163h37M173 163h2M186 163h16M96 164h14M121 164h49M172 164h3M186 164h16M95 165h12M120 165h48M170 165h6M186 165h17M94 166h9M119 166h47M169 166h3M186 166h17M94 167h16M118 167h46M173 167h5M186 167h17M94 168h16M118 168h60M186 168h17M94 169h16M119 169h59M186 169h17M94 170h15M120 170h58M186 170h18M94 171h15M122 171h56M186 171h19M94 172h14M125 172h52M186 172h19M93 173h14M129 173h47M186 173h18M93 174h14M136 174h39M187 174h16M92 175h14M121 175h1M134 175h40M187 175h15M92 176h13M121 176h2M131 176h43M187 176h13M203 176h2M92 177h13M121 177h53M188 177h18M92 178h13M121 178h53M188 178h18M93 179h12M120 179h54M189 179h17M93 180h13M120 180h55M190 180h15M93 181h13M120 181h54M191 181h13M94 182h12M120 182h54M200 182h5M95 183h11M121 183h52M189 183h5M202 183h3M89 184h4M96 184h9M121 184h52M189 184h11M202 184h3M88 185h6M97 185h8M121 185h52M190 185h9M201 185h4M88 186h8M98 186h7M122 186h51M190 186h7M199 186h6M88 187h10M100 187h6M122 187h52M190 187h5M198 187h6M90 188h10M102 188h5M122 188h52M191 188h2M196 188h6M92 189h14M122 189h53M191 189h9M93 190h12M121 190h54M192 190h5M201 190h4M93 191h12M121 191h54M192 191h13M93 192h13M120 192h55M194 192h11M92 193h14M120 193h55M190 193h15M91 194h13M119 194h55M190 194h16M90 195h13M119 195h55M190 195h17M89 196h13M119 196h54M190 196h16M88 197h14M119 197h54M190 197h15M87 198h14M119 198h53M191 198h4M196 198h7M88 199h13M119 199h51M173 199h1M191 199h2M195 199h6M204 199h1M88 200h13M119 200h55M194 200h11M89 201h11M119 201h55M193 201h12M89 202h11M119 202h55M193 202h12M89 203h11M119 203h55M194 203h11M89 204h10M119 204h55M194 204h11M89 205h10M119 205h55M194 205h11M89 206h1M92 206h5M120 206h53M197 206h5M204 206h1M90 207h10M120 207h53M194 207h10M89 208h12M120 208h53M193 208h12M85 209h1M87 209h4M93 209h8M120 209h53M193 209h8M203 209h4M208 209h1M83 210h7M91 210h10M193 210h10M204 210h7M79 211h2M82 211h16M99 211h2M119 211h57M193 211h2M196 211h16M213 211h2M78 212h2M81 212h2M85 212h12M100 212h1M119 212h57M193 212h1M197 212h12M211 212h2M214 212h2M76 213h3M80 213h2M85 213h3M90 213h3M94 213h3M119 213h57M197 213h3M201 213h3M206 213h3M212 213h2M215 213h3M75 214h2M79 214h2M84 214h3M89 214h3M119 214h57M202 214h3M207 214h3M213 214h2M217 214h2M72 215h1M74 215h2M77 215h1M79 215h2M83 215h3M88 215h3M92 215h5M102 215h1M119 215h57M191 215h1M197 215h5M203 215h3M208 215h3M213 215h2M216 215h1M218 215h2M221 215h1M71 216h3M76 216h1M79 216h1M81 216h1M83 216h2M87 216h3M91 216h6M101 216h2M119 216h57M191 216h2M197 216h6M204 216h3M209 216h2M212 216h1M214 216h1M217 216h1M220 216h3M70 217h6M78 217h2M81 217h1M83 217h2M87 217h2M90 217h8M100 217h3M119 217h57M191 217h3M196 217h8M205 217h2M209 217h2M212 217h1M214 217h2M218 217h6M69 218h7M77 218h2M80 218h1M82 218h3M87 218h2M90 218h13M119 218h57M191 218h13M205 218h2M209 218h3M213 218h1M215 218h2M218 218h7M68 219h8M79 219h1M81 219h3M86 219h2M89 219h14M119 219h57M191 219h14M206 219h2M210 219h3M214 219h1M218 219h8M67 220h13M81 220h2M85 220h3M89 220h14M119 220h57M191 220h14M206 220h3M211 220h2M214 220h13M66 221h14M83 221h1M85 221h2M88 221h15M119 221h57M191 221h15M207 221h2M210 221h1M214 221h14M65 222h19M87 222h16M119 222h57M191 222h16M210 222h19M64 223h39M119 223h57M191 223h39M63 224h40M119 224h57M191 224h40M62 225h41M119 225h57M191 225h41M61 226h42M119 226h57M191 226h42M60 227h43M119 227h57M191 227h43M59 228h44M119 228h57M191 228h44M58 229h45M119 229h57M191 229h45M57 230h46M119 230h57M191 230h46M56 231h47M119 231h57M191 231h47" />
<path stroke="#1c68ff" d="M61 262h1M236 262h1M61 263h1M236 263h1M61 264h1M236 264h1M61 265h1M236 265h1M61 266h1M236 266h1M61 267h1M236 267h1M61 268h1M236 268h1M61 269h1M236 269h1M61 270h1M236 270h1M61 271h1M236 271h1M61 272h1M236 272h1M61 273h1M236 273h1M61 274h1M236 274h1M61 275h1M236 275h1M61 276h1M236 276h1M61 277h1M236 277h1M61 278h1M236 278h1M61 279h1M236 279h1M61 280h1M236 280h1M61 281h1M236 281h1M61 282h1M236 282h1M61 283h1M236 283h1M61 284h1M236 284h1M61 285h1M236 285h1M61 286h1M236 286h1M61 287h1M236 287h1M61 288h1M236 288h1M61 289h1M236 289h1M61 290h1M236 290h1M61 291h1M236 291h1M61 292h1M236 292h1M61 293h1M236 293h1M61 294h1M236 294h1M61 295h1M236 295h1M61 296h1M236 296h1M61 297h1M236 297h1M61 298h1M236 298h1M61 299h1M236 299h1M61 300h1M236 300h1M61 301h1M236 301h1M61 302h1M236 302h1M61 303h1M236 303h1M61 304h1M236 304h1M61 305h1M236 305h1M61 306h1M236 306h1M61 307h1M236 307h1M61 308h1M236 308h1M61 309h1M236 309h1M61 310h1M236 310h1M61 311h1M236 311h1M61 312h1M236 312h1M61 313h1M236 313h1M61 314h1M236 314h1M61 315h1M236 315h1M61 316h1M236 316h1M61 317h1M236 317h1M61 318h1M236 318h1M61 319h1M236 319h1M61 320h1M236 320h1M61 321h1M236 321h1M61 322h1M236 322h1M61 323h1M236 323h1M61 324h1M236 324h1M61 325h1M236 325h1M61 326h1M236 326h1M61 327h1M236 327h1M61 328h1M236 328h1M61 329h1M236 329h1M61 330h1M236 330h1M61 331h1M236 331h1M61 332h1M236 332h1M61 333h1M236 333h1M61 334h1M236 334h1M61 335h1M236 335h1M61 336h1M236 336h1M61 337h1M236 337h1M61 338h1M236 338h1M61 339h1M236 339h1M61 340h1M236 340h1M61 341h1M236 341h1M61 342h1M236 342h1M61 343h1M236 343h1M61 344h2M235 344h2M61 345h176M61 346h176M61 347h176M62 348h174" />
</svg>