<svg xmlns="http://www.w3.org/2000/svg" viewBox="0 -0.5 390 171" shape-rendering="crispEdges">
<metadata>Made with Pixels to Svg https://codepen.io/shshaw/pen/XbxvNj</metadata>
<path stroke="#ffffff" d="M0 0h84M97 0h4M157 0h4M205 0h4M218 0h52M278 0h52M338 0h52M0 1h1M83 1h1M97 1h1M100 1h2M157 1h1M160 1h2M204 1h2M208 1h1M218 1h1M269 1h1M278 1h1M329 1h1M338 1h1M389 1h1M0 2h1M83 2h1M97 2h1M101 2h2M157 2h1M161 2h2M203 2h2M208 2h1M218 2h1M269 2h1M278 2h1M329 2h1M338 2h1M389 2h1M0 3h1M83 3h1M97 3h1M102 3h2M157 3h1M162 3h2M202 3h2M208 3h1M218 3h1M269 3h1M278 3h1M329 3h1M338 3h1M389 3h1M0 4h1M83 4h1M97 4h1M103 4h2M157 4h1M163 4h2M201 4h2M208 4h1M218 4h1M269 4h1M278 4h1M329 4h1M338 4h1M389 4h1M0 5h1M83 5h1M97 5h1M104 5h2M157 5h1M164 5h2M200 5h2M208 5h1M218 5h1M269 5h1M278 5h1M329 5h1M338 5h1M389 5h1M0 6h1M83 6h1M97 6h1M105 6h2M157 6h1M165 6h2M199 6h2M208 6h1M218 6h1M269 6h1M278 6h1M329 6h1M338 6h1M389 6h1M0 7h1M83 7h1M97 7h1M106 7h2M157 7h1M166 7h2M198 7h2M208 7h1M218 7h1M269 7h1M278 7h1M329 7h1M338 7h1M389 7h1M0 8h1M83 8h1M97 8h1M107 8h2M157 8h1M167 8h2M197 8h2M208 8h1M218 8h1M269 8h1M278 8h1M329 8h1M338 8h1M389 8h1M0 9h1M83 9h1M97 9h1M108 9h2M157 9h1M168 9h2M196 9h2M208 9h1M218 9h1M269 9h1M278 9h1M329 9h1M338 9h1M389 9h1M0 10h1M83 10h1M97 10h1M109 10h2M157 10h1M169 10h2M195 10h2M208 10h1M218 10h1M269 10h1M278 10h1M329 10h1M338 10h1M389 10h1M0 11h1M83 11h1M97 11h1M110 11h2M157 11h1M170 11h2M194 11h2M208 11h1M218 11h1M269 11h1M278 11h1M329 11h1M338 11h1M389 11h1M0 12h1M83 12h1M97 12h1M111 12h2M157 12h1M171 12h2M193 12h2M208 12h1M218 12h1M269 12h1M278 12h1M329 12h1M338 12h1M389 12h1M0 13h1M83 13h1M97 13h1M112 13h2M157 13h1M172 13h2M192 13h2M208 13h1M218 13h1M269 13h1M278 13h1M329 13h1M338 13h1M389 13h1M0 14h1M83 14h1M97 14h1M113 14h2M157 14h1M173 14h2M191 14h2M208 14h1M218 14h1M269 14h1M278 14h1M329 14h1M338 14h1M389 14h1M0 15h1M83 15h1M97 15h1M114 15h2M157 15h1M174 15h2M190 15h2M208 15h1M218 15h52M278 15h37M329 15h1M338 15h1M353 15h37M0 16h1M83 16h1M97 16h1M115 16h2M157 16h1M175 16h2M189 16h2M208 16h1M314 16h1M329 16h1M338 16h1M353 16h1M0 17h1M83 17h1M97 17h1M116 17h2M157 17h1M176 17h2M188 17h2M208 17h1M314 17h1M329 17h1M338 17h1M353 17h1M0 18h1M83 18h1M97 18h1M117 18h2M157 18h1M177 18h2M187 18h2M208 18h1M218 18h52M278 18h37M329 18h1M338 18h1M353 18h37M0 19h1M83 19h1M97 19h1M118 19h2M157 19h1M178 19h2M186 19h2M208 19h1M218 19h1M269 19h1M278 19h1M329 19h1M338 19h1M389 19h1M0 20h1M83 20h1M97 20h1M119 20h2M157 20h1M179 20h2M185 20h2M208 20h1M218 20h1M269 20h1M278 20h1M329 20h1M338 20h1M389 20h1M0 21h1M83 21h1M97 21h1M120 21h2M157 21h1M180 21h2M184 21h2M208 21h1M218 21h1M269 21h1M278 21h1M329 21h1M338 21h1M389 21h1M0 22h1M83 22h1M97 22h1M121 22h2M157 22h1M181 22h4M208 22h1M218 22h1M269 22h1M278 22h1M329 22h1M338 22h1M389 22h1M0 23h1M23 23h61M97 23h1M122 23h2M157 23h1M182 23h2M208 23h1M218 23h1M269 23h1M278 23h1M329 23h1M338 23h1M389 23h1M0 24h1M23 24h1M97 24h1M123 24h2M157 24h1M208 24h1M218 24h1M269 24h1M278 24h1M329 24h1M338 24h1M389 24h1M0 25h1M23 25h1M97 25h1M124 25h2M157 25h1M208 25h1M218 25h1M269 25h1M278 25h1M329 25h1M338 25h1M389 25h1M0 26h1M23 26h1M97 26h1M125 26h2M157 26h1M208 26h1M218 26h1M269 26h1M278 26h1M329 26h1M338 26h1M389 26h1M0 27h1M23 27h1M97 27h1M126 27h2M157 27h1M208 27h1M218 27h1M269 27h1M278 27h1M329 27h1M338 27h1M389 27h1M0 28h1M23 28h1M97 28h1M127 28h2M157 28h1M208 28h1M218 28h1M269 28h1M278 28h1M329 28h1M338 28h1M389 28h1M0 29h1M23 29h1M97 29h1M112 29h1M128 29h2M157 29h1M172 29h1M193 29h1M208 29h1M218 29h1M269 29h1M278 29h1M329 29h1M338 29h1M389 29h1M0 30h1M23 30h1M80 30h4M97 30h1M112 30h2M129 30h2M157 30h1M172 30h2M192 30h2M208 30h1M218 30h1M269 30h1M278 30h1M329 30h1M338 30h1M389 30h1M0 31h1M23 31h1M79 31h2M83 31h1M97 31h1M112 31h3M130 31h2M157 31h1M172 31h3M191 31h3M208 31h1M218 31h1M269 31h1M278 31h1M329 31h1M338 31h1M389 31h1M0 32h1M23 32h1M78 32h2M83 32h1M97 32h1M112 32h1M114 32h2M131 32h2M157 32h1M172 32h1M174 32h2M190 32h2M193 32h1M208 32h1M218 32h1M269 32h1M278 32h1M329 32h1M338 32h1M389 32h1M0 33h1M23 33h1M77 33h2M83 33h1M97 33h1M112 33h1M115 33h2M132 33h2M157 33h1M172 33h1M175 33h2M189 33h2M193 33h1M208 33h1M218 33h52M278 33h1M293 33h5M313 33h17M338 33h37M389 33h1M0 34h1M23 34h1M76 34h2M83 34h1M97 34h1M112 34h1M116 34h2M133 34h2M157 34h1M172 34h1M176 34h2M188 34h2M193 34h1M208 34h1M278 34h1M293 34h1M297 34h2M314 34h2M374 34h1M389 34h1M0 35h1M23 35h1M75 35h2M83 35h1M97 35h1M112 35h1M117 35h2M134 35h2M157 35h1M172 35h1M177 35h2M187 35h2M193 35h1M208 35h1M278 35h1M293 35h1M298 35h2M315 35h2M374 35h1M389 35h1M0 36h1M23 36h1M74 36h2M83 36h1M97 36h1M112 36h1M118 36h2M135 36h2M157 36h1M172 36h1M178 36h2M186 36h2M193 36h1M208 36h1M218 36h52M278 36h1M293 36h1M299 36h2M316 36h2M338 36h37M389 36h1M0 37h1M23 37h1M73 37h2M83 37h1M97 37h1M112 37h1M119 37h2M136 37h2M157 37h1M172 37h1M179 37h2M185 37h2M193 37h1M208 37h1M218 37h1M269 37h1M278 37h1M293 37h1M300 37h2M317 37h2M338 37h1M389 37h1M0 38h1M23 38h1M72 38h2M83 38h1M97 38h1M112 38h1M120 38h2M137 38h2M157 38h1M172 38h1M180 38h2M184 38h2M193 38h1M208 38h1M218 38h1M269 38h1M278 38h1M293 38h1M301 38h2M318 38h2M338 38h1M389 38h1M0 39h1M23 39h1M71 39h2M83 39h1M97 39h1M112 39h1M121 39h2M138 39h2M157 39h1M172 39h1M181 39h4M193 39h1M208 39h1M218 39h1M269 39h1M278 39h1M293 39h1M302 39h2M319 39h2M338 39h1M389 39h1M0 40h1M23 40h1M70 40h2M83 40h1M97 40h1M112 40h1M122 40h2M139 40h2M157 40h1M172 40h1M193 40h1M208 40h1M218 40h1M269 40h1M278 40h1M293 40h1M303 40h2M320 40h2M338 40h1M389 40h1M0 41h1M23 41h1M69 41h2M83 41h1M97 41h1M112 41h1M123 41h2M140 41h2M157 41h1M172 41h1M193 41h1M208 41h1M218 41h1M269 41h1M278 41h1M293 41h1M304 41h2M321 41h2M338 41h1M389 41h1M0 42h1M23 42h1M68 42h2M83 42h1M97 42h1M112 42h1M124 42h2M141 42h2M157 42h1M172 42h1M193 42h1M208 42h1M218 42h1M269 42h1M278 42h1M293 42h1M305 42h2M322 42h2M338 42h1M389 42h1M0 43h1M23 43h1M67 43h2M83 43h1M97 43h1M112 43h1M125 43h2M142 43h2M157 43h1M172 43h1M193 43h1M208 43h1M218 43h1M269 43h1M278 43h1M293 43h1M306 43h2M323 43h2M338 43h1M389 43h1M0 44h1M23 44h1M66 44h2M83 44h1M97 44h1M112 44h1M126 44h2M143 44h2M157 44h1M172 44h1M193 44h1M208 44h1M218 44h1M269 44h1M278 44h1M293 44h1M307 44h2M324 44h2M338 44h1M389 44h1M0 45h1M23 45h1M65 45h2M83 45h1M97 45h1M112 45h1M127 45h2M144 45h2M157 45h1M172 45h1M193 45h1M208 45h1M218 45h1M269 45h1M278 45h1M293 45h1M308 45h2M325 45h2M338 45h1M389 45h1M0 46h1M23 46h1M64 46h2M83 46h1M97 46h1M112 46h1M128 46h2M145 46h2M157 46h1M172 46h1M193 46h1M208 46h1M218 46h1M269 46h1M278 46h1M293 46h1M309 46h2M326 46h2M338 46h1M389 46h1M0 47h1M23 47h1M63 47h2M83 47h1M97 47h1M112 47h1M129 47h2M146 47h2M157 47h1M172 47h1M193 47h1M208 47h1M218 47h1M269 47h1M278 47h1M293 47h1M310 47h2M327 47h2M338 47h1M389 47h1M0 48h1M23 48h1M62 48h2M83 48h1M97 48h1M112 48h1M130 48h2M147 48h2M157 48h1M172 48h1M193 48h1M208 48h1M218 48h1M269 48h1M278 48h1M293 48h1M311 48h2M328 48h2M338 48h1M389 48h1M0 49h1M23 49h1M61 49h2M83 49h1M97 49h1M112 49h1M131 49h2M148 49h1M157 49h1M172 49h1M193 49h1M208 49h1M218 49h1M269 49h1M278 49h1M293 49h1M312 49h2M329 49h1M338 49h1M389 49h1M0 50h1M23 50h1M60 50h2M83 50h1M97 50h1M112 50h1M132 50h2M148 50h1M157 50h1M172 50h1M193 50h1M208 50h1M218 50h1M269 50h1M278 50h1M293 50h1M313 50h2M329 50h1M338 50h1M389 50h1M0 51h1M23 51h1M60 51h1M83 51h1M97 51h16M133 51h16M157 51h16M193 51h16M218 51h52M278 51h16M314 51h2M329 51h1M338 51h52M0 52h1M23 52h1M60 52h1M83 52h1M315 52h2M329 52h1M0 53h1M23 53h1M60 53h1M83 53h1M316 53h2M329 53h1M0 54h1M23 54h1M60 54h1M83 54h1M317 54h2M329 54h1M0 55h1M23 55h1M60 55h1M83 55h1M318 55h2M329 55h1M0 56h1M23 56h1M60 56h1M83 56h1M319 56h2M329 56h1M0 57h1M23 57h1M60 57h1M83 57h1M320 57h2M329 57h1M0 58h1M23 58h1M60 58h1M83 58h1M321 58h2M329 58h1M0 59h1M23 59h1M60 59h1M83 59h1M322 59h2M329 59h1M0 60h1M23 60h38M83 60h1M323 60h2M329 60h1M0 61h1M83 61h1M324 61h2M329 61h1M0 62h1M83 62h1M325 62h2M329 62h1M0 63h1M83 63h1M326 63h4M0 64h1M83 64h1M0 65h1M83 65h1M0 66h1M83 66h1M0 67h1M83 67h1M97 67h84M194 67h16M230 67h16M254 67h16M278 67h16M338 67h52M0 68h1M83 68h1M97 68h1M180 68h1M194 68h1M209 68h1M230 68h1M245 68h1M254 68h1M269 68h1M278 68h1M293 68h1M338 68h1M389 68h1M0 69h1M83 69h1M97 69h1M180 69h1M194 69h1M209 69h1M230 69h1M245 69h1M254 69h1M269 69h1M278 69h1M293 69h1M338 69h1M389 69h1M0 70h1M83 70h1M97 70h1M180 70h1M194 70h1M209 70h1M230 70h1M245 70h1M254 70h1M269 70h1M278 70h1M293 70h1M338 70h1M389 70h1M0 71h1M83 71h1M97 71h1M180 71h1M194 71h1M209 71h1M230 71h1M245 71h1M254 71h1M269 71h1M278 71h1M293 71h1M338 71h1M389 71h1M0 72h1M83 72h1M97 72h1M180 72h1M194 72h1M209 72h1M230 72h1M245 72h1M254 72h1M269 72h1M278 72h1M293 72h1M338 72h1M389 72h1M0 73h1M83 73h1M97 73h1M180 73h1M194 73h1M209 73h1M230 73h1M245 73h1M254 73h1M269 73h1M278 73h1M293 73h1M338 73h1M389 73h1M0 74h1M83 74h1M97 74h1M180 74h1M194 74h1M209 74h1M230 74h1M245 74h1M254 74h1M269 74h1M278 74h1M293 74h1M338 74h1M389 74h1M0 75h1M83 75h1M97 75h1M180 75h1M194 75h1M209 75h1M230 75h1M245 75h1M254 75h1M269 75h1M278 75h1M293 75h1M338 75h1M389 75h1M0 76h1M83 76h1M97 76h1M180 76h1M194 76h1M209 76h1M230 76h1M245 76h1M254 76h1M269 76h1M278 76h1M293 76h1M338 76h1M389 76h1M0 77h1M83 77h1M97 77h1M180 77h1M194 77h1M209 77h1M230 77h1M245 77h1M254 77h1M269 77h1M278 77h1M293 77h1M338 77h1M389 77h1M0 78h1M83 78h1M97 78h1M180 78h1M194 78h1M209 78h1M230 78h1M245 78h1M254 78h1M269 78h1M278 78h1M293 78h1M338 78h1M389 78h1M0 79h1M83 79h1M97 79h1M180 79h1M194 79h1M209 79h1M230 79h1M245 79h1M254 79h1M269 79h1M278 79h1M293 79h1M338 79h1M389 79h1M0 80h1M83 80h1M97 80h1M180 80h1M194 80h1M209 80h1M230 80h1M245 80h1M254 80h1M269 80h1M278 80h1M293 80h1M338 80h1M389 80h1M0 81h1M83 81h1M97 81h1M180 81h1M194 81h1M209 81h1M230 81h1M245 81h1M254 81h1M269 81h1M278 81h1M293 81h1M338 81h1M389 81h1M0 82h1M83 82h1M97 82h1M180 82h1M194 82h1M209 82h1M230 82h1M245 82h1M254 82h1M269 82h1M278 82h1M293 82h1M338 82h1M353 82h22M389 82h1M0 83h61M82 83h2M97 83h1M180 83h1M194 83h1M209 83h1M230 83h1M245 83h1M254 83h1M269 83h1M278 83h1M293 83h1M338 83h1M353 83h1M374 83h1M389 83h1M60 84h1M81 84h2M97 84h1M180 84h1M194 84h1M209 84h1M230 84h1M245 84h1M254 84h1M269 84h1M278 84h1M293 84h1M338 84h1M353 84h1M374 84h1M389 84h1M60 85h1M80 85h2M97 85h1M180 85h1M194 85h1M209 85h1M230 85h1M245 85h1M254 85h1M269 85h1M278 85h1M293 85h1M338 85h1M353 85h1M374 85h1M389 85h1M60 86h1M79 86h2M97 86h1M180 86h1M194 86h1M209 86h1M230 86h1M245 86h1M254 86h1M269 86h1M278 86h1M293 86h1M338 86h1M353 86h1M374 86h1M389 86h1M60 87h1M78 87h2M97 87h1M180 87h1M194 87h1M209 87h1M230 87h1M245 87h1M254 87h1M269 87h1M278 87h1M293 87h1M338 87h1M353 87h1M374 87h1M389 87h1M60 88h1M77 88h2M97 88h1M180 88h1M194 88h1M209 88h1M230 88h1M245 88h1M254 88h1M269 88h1M278 88h1M293 88h1M338 88h1M353 88h1M374 88h1M389 88h1M60 89h1M76 89h2M97 89h1M180 89h1M194 89h1M209 89h1M230 89h1M245 89h1M254 89h1M269 89h1M278 89h1M293 89h1M338 89h1M353 89h1M374 89h1M389 89h1M60 90h1M75 90h2M97 90h1M120 90h61M194 90h1M209 90h1M230 90h1M245 90h1M254 90h1M269 90h1M278 90h1M293 90h1M338 90h1M353 90h1M374 90h1M389 90h1M60 91h1M74 91h2M97 91h1M120 91h1M194 91h1M209 91h1M230 91h1M245 91h1M254 91h1M269 91h1M278 91h1M293 91h1M338 91h1M353 91h1M374 91h1M389 91h1M60 92h1M73 92h2M97 92h1M120 92h1M194 92h1M209 92h1M230 92h1M245 92h1M254 92h1M269 92h1M278 92h1M293 92h1M338 92h1M353 92h1M373 92h2M389 92h1M60 93h1M72 93h2M97 93h1M120 93h1M194 93h1M209 93h1M230 93h1M245 93h1M254 93h1M269 93h1M278 93h1M293 93h1M338 93h1M353 93h1M372 93h2M389 93h1M60 94h1M71 94h2M97 94h1M120 94h1M194 94h1M209 94h1M230 94h1M245 94h1M254 94h1M269 94h1M278 94h1M293 94h1M338 94h1M353 94h1M371 94h2M388 94h2M60 95h1M70 95h2M97 95h1M120 95h1M194 95h1M209 95h1M230 95h1M245 95h1M254 95h1M269 95h1M278 95h1M293 95h1M338 95h1M353 95h1M370 95h2M387 95h2M60 96h1M69 96h2M97 96h1M120 96h1M194 96h1M209 96h1M230 96h1M245 96h1M254 96h1M269 96h1M278 96h1M293 96h1M338 96h1M353 96h1M369 96h2M386 96h2M60 97h1M68 97h2M97 97h1M120 97h1M177 97h4M194 97h1M209 97h1M230 97h1M245 97h1M254 97h1M269 97h1M278 97h1M293 97h1M338 97h1M353 97h1M368 97h2M385 97h2M60 98h1M67 98h2M97 98h1M120 98h1M176 98h2M180 98h1M194 98h1M209 98h1M230 98h1M245 98h1M254 98h1M269 98h1M278 98h1M293 98h1M338 98h1M353 98h1M367 98h2M384 98h2M60 99h1M66 99h2M97 99h1M120 99h1M175 99h2M180 99h1M194 99h1M209 99h1M230 99h1M245 99h1M254 99h1M269 99h1M278 99h1M293 99h1M338 99h1M353 99h1M366 99h2M383 99h2M60 100h1M65 100h2M97 100h1M120 100h1M174 100h2M180 100h1M194 100h1M209 100h1M230 100h1M245 100h1M254 100h1M269 100h1M278 100h1M293 100h1M338 100h1M353 100h1M365 100h2M382 100h2M60 101h1M64 101h2M97 101h1M120 101h1M173 101h2M180 101h1M194 101h1M209 101h1M230 101h1M245 101h1M254 101h1M269 101h1M278 101h1M293 101h1M338 101h1M353 101h1M364 101h2M381 101h2M60 102h1M63 102h2M97 102h1M120 102h1M172 102h2M180 102h1M194 102h1M209 102h1M230 102h1M245 102h1M254 102h1M269 102h1M278 102h1M293 102h1M338 102h1M353 102h1M363 102h2M380 102h2M60 103h4M97 103h1M120 103h1M171 103h2M180 103h1M194 103h1M209 103h22M245 103h1M254 103h1M269 103h1M278 103h1M293 103h37M338 103h1M353 103h1M362 103h2M379 103h2M97 104h1M120 104h1M170 104h2M180 104h1M194 104h1M245 104h1M254 104h1M269 104h1M278 104h1M329 104h1M338 104h1M353 104h1M361 104h2M378 104h2M97 105h1M120 105h1M169 105h2M180 105h1M194 105h1M245 105h1M254 105h1M269 105h1M278 105h1M329 105h1M338 105h1M353 105h1M360 105h2M377 105h2M97 106h1M120 106h1M168 106h2M180 106h1M194 106h1M245 106h1M254 106h1M269 106h1M278 106h1M329 106h1M338 106h1M353 106h1M359 106h2M376 106h2M97 107h1M120 107h1M167 107h2M180 107h1M194 107h1M245 107h1M254 107h1M269 107h1M278 107h1M329 107h1M338 107h1M353 107h1M358 107h2M375 107h2M97 108h1M120 108h1M166 108h2M180 108h1M194 108h1M245 108h1M254 108h1M269 108h1M278 108h1M329 108h1M338 108h1M353 108h1M357 108h2M374 108h2M97 109h1M120 109h1M165 109h2M180 109h1M194 109h1M245 109h1M254 109h1M269 109h1M278 109h1M329 109h1M338 109h1M353 109h1M356 109h2M373 109h2M97 110h1M120 110h1M164 110h2M180 110h1M194 110h1M245 110h1M254 110h1M269 110h1M278 110h1M329 110h1M338 110h1M353 110h1M355 110h2M372 110h2M97 111h1M120 111h1M163 111h2M180 111h1M194 111h1M245 111h1M254 111h1M269 111h1M278 111h1M329 111h1M338 111h1M353 111h3M371 111h2M97 112h1M120 112h1M162 112h2M180 112h1M194 112h1M245 112h1M254 112h1M269 112h1M278 112h1M329 112h1M338 112h1M353 112h2M370 112h2M97 113h1M120 113h1M161 113h2M180 113h1M194 113h1M245 113h1M254 113h1M269 113h1M278 113h1M329 113h1M338 113h1M353 113h1M369 113h2M97 114h1M120 114h1M160 114h2M180 114h1M194 114h1M245 114h1M254 114h1M269 114h1M278 114h1M329 114h1M338 114h1M368 114h2M97 115h1M120 115h1M159 115h2M180 115h1M194 115h1M245 115h1M254 115h1M269 115h1M278 115h1M329 115h1M338 115h1M367 115h2M97 116h1M120 116h1M158 116h2M180 116h1M194 116h1M245 116h1M254 116h1M269 116h1M278 116h1M329 116h1M338 116h1M366 116h2M97 117h1M120 117h1M157 117h2M180 117h1M194 117h1M245 117h1M254 117h1M269 117h1M278 117h1M329 117h1M338 117h1M365 117h2M97 118h1M120 118h1M157 118h1M180 118h1M194 118h52M254 118h16M278 118h52M338 118h1M364 118h2M97 119h1M120 119h1M157 119h1M180 119h1M338 119h1M363 119h2M97 120h1M120 120h1M157 120h1M180 120h1M338 120h1M362 120h2M97 121h1M120 121h1M157 121h1M180 121h1M338 121h1M361 121h2M97 122h1M120 122h1M157 122h1M180 122h1M338 122h1M360 122h2M97 123h1M120 123h1M157 123h1M180 123h1M338 123h1M359 123h2M97 124h1M120 124h1M157 124h1M180 124h1M338 124h1M358 124h2M97 125h1M120 125h1M157 125h1M180 125h1M338 125h1M357 125h2M97 126h1M120 126h1M157 126h1M180 126h1M338 126h1M356 126h2M97 127h1M120 127h38M180 127h1M338 127h1M355 127h2M97 128h1M180 128h1M338 128h1M354 128h2M97 129h1M180 129h1M338 129h1M353 129h2M97 130h1M180 130h1M338 130h1M352 130h2M97 131h1M180 131h1M338 131h1M351 131h2M97 132h1M180 132h1M338 132h1M350 132h2M97 133h1M180 133h1M338 133h1M349 133h2M97 134h1M180 134h1M338 134h1M348 134h2M97 135h1M180 135h1M338 135h1M347 135h2M97 136h1M180 136h1M338 136h1M346 136h2M97 137h1M180 137h1M338 137h1M345 137h2M97 138h1M180 138h1M338 138h1M344 138h2M97 139h1M180 139h1M338 139h1M343 139h2M97 140h1M180 140h1M338 140h1M342 140h2M97 141h1M180 141h1M338 141h1M341 141h2M97 142h1M180 142h1M338 142h4M97 143h1M180 143h1M97 144h1M180 144h1M97 145h1M180 145h1M97 146h1M180 146h1M97 147h1M180 147h1M97 148h1M180 148h1M97 149h1M180 149h1M97 150h61M179 150h2M157 151h1M178 151h2M157 152h1M177 152h2M157 153h1M176 153h2M157 154h1M175 154h2M157 155h1M174 155h2M157 156h1M173 156h2M157 157h1M172 157h2M157 158h1M171 158h2M157 159h1M170 159h2M157 160h1M169 160h2M157 161h1M168 161h2M157 162h1M167 162h2M157 163h1M166 163h2M157 164h1M165 164h2M157 165h1M164 165h2M157 166h1M163 166h2M157 167h1M162 167h2M157 168h1M161 168h2M157 169h1M160 169h2M157 170h4" />
<path stroke="#000000" d="M1 1h82M98 1h2M158 1h2M206 1h2M219 1h50M279 1h50M339 1h50M1 2h1M82 2h1M98 2h1M100 2h1M158 2h1M160 2h1M205 2h1M207 2h1M219 2h1M268 2h1M279 2h1M328 2h1M339 2h1M388 2h1M1 3h1M82 3h1M98 3h1M101 3h1M158 3h1M161 3h1M204 3h1M207 3h1M219 3h1M268 3h1M279 3h1M328 3h1M339 3h1M388 3h1M1 4h1M82 4h1M98 4h1M102 4h1M158 4h1M162 4h1M203 4h1M207 4h1M219 4h1M268 4h1M279 4h1M328 4h1M339 4h1M388 4h1M1 5h1M82 5h1M98 5h1M103 5h1M158 5h1M163 5h1M202 5h1M207 5h1M219 5h1M268 5h1M279 5h1M328 5h1M339 5h1M388 5h1M1 6h1M82 6h1M98 6h1M104 6h1M158 6h1M164 6h1M201 6h1M207 6h1M219 6h1M268 6h1M279 6h1M328 6h1M339 6h1M388 6h1M1 7h1M82 7h1M98 7h1M105 7h1M158 7h1M165 7h1M200 7h1M207 7h1M219 7h1M268 7h1M279 7h1M328 7h1M339 7h1M388 7h1M1 8h1M82 8h1M98 8h1M106 8h1M158 8h1M166 8h1M199 8h1M207 8h1M219 8h1M268 8h1M279 8h1M328 8h1M339 8h1M388 8h1M1 9h1M82 9h1M98 9h1M107 9h1M158 9h1M167 9h1M198 9h1M207 9h1M219 9h1M268 9h1M279 9h1M328 9h1M339 9h1M388 9h1M1 10h1M82 10h1M98 10h1M108 10h1M158 10h1M168 10h1M197 10h1M207 10h1M219 10h1M268 10h1M279 10h1M328 10h1M339 10h1M388 10h1M1 11h1M82 11h1M98 11h1M109 11h1M158 11h1M169 11h1M196 11h1M207 11h1M219 11h1M268 11h1M279 11h1M328 11h1M339 11h1M388 11h1M1 12h1M82 12h1M98 12h1M110 12h1M158 12h1M170 12h1M195 12h1M207 12h1M219 12h1M268 12h1M279 12h1M328 12h1M339 12h1M388 12h1M1 13h1M82 13h1M98 13h1M111 13h1M158 13h1M171 13h1M194 13h1M207 13h1M219 13h1M268 13h1M279 13h1M328 13h1M339 13h1M388 13h1M1 14h1M82 14h1M98 14h1M112 14h1M158 14h1M172 14h1M193 14h1M207 14h1M219 14h50M279 14h37M328 14h1M339 14h1M352 14h37M1 15h1M82 15h1M98 15h1M113 15h1M158 15h1M173 15h1M192 15h1M207 15h1M315 15h1M328 15h1M339 15h1M352 15h1M1 16h1M82 16h1M98 16h1M114 16h1M158 16h1M174 16h1M191 16h1M207 16h1M315 16h1M328 16h1M339 16h1M352 16h1M1 17h1M82 17h1M98 17h1M115 17h1M158 17h1M175 17h1M190 17h1M207 17h1M315 17h1M328 17h1M339 17h1M352 17h1M1 18h1M82 18h1M98 18h1M116 18h1M158 18h1M176 18h1M189 18h1M207 18h1M315 18h1M328 18h1M339 18h1M352 18h1M1 19h1M82 19h1M98 19h1M117 19h1M158 19h1M177 19h1M188 19h1M207 19h1M219 19h50M279 19h37M328 19h1M339 19h1M352 19h37M1 20h1M82 20h1M98 20h1M118 20h1M158 20h1M178 20h1M187 20h1M207 20h1M219 20h1M268 20h1M279 20h1M328 20h1M339 20h1M388 20h1M1 21h1M82 21h1M98 21h1M119 21h1M158 21h1M179 21h1M186 21h1M207 21h1M219 21h1M268 21h1M279 21h1M328 21h1M339 21h1M388 21h1M1 22h1M22 22h61M98 22h1M120 22h1M158 22h1M180 22h1M185 22h1M207 22h1M219 22h1M268 22h1M279 22h1M328 22h1M339 22h1M388 22h1M1 23h1M22 23h1M98 23h1M121 23h1M158 23h1M181 23h1M184 23h1M207 23h1M219 23h1M268 23h1M279 23h1M328 23h1M339 23h1M388 23h1M1 24h1M22 24h1M98 24h1M122 24h1M158 24h1M182 24h2M207 24h1M219 24h1M268 24h1M279 24h1M328 24h1M339 24h1M388 24h1M1 25h1M22 25h1M98 25h1M123 25h1M158 25h1M207 25h1M219 25h1M268 25h1M279 25h1M328 25h1M339 25h1M388 25h1M1 26h1M22 26h1M98 26h1M124 26h1M158 26h1M207 26h1M219 26h1M268 26h1M279 26h1M328 26h1M339 26h1M388 26h1M1 27h1M22 27h1M98 27h1M111 27h1M125 27h1M158 27h1M171 27h1M194 27h1M207 27h1M219 27h1M268 27h1M279 27h1M328 27h1M339 27h1M388 27h1M1 28h1M22 28h1M98 28h1M111 28h2M126 28h1M158 28h1M171 28h2M193 28h2M207 28h1M219 28h1M268 28h1M279 28h1M328 28h1M339 28h1M388 28h1M1 29h1M22 29h1M98 29h1M111 29h1M113 29h1M127 29h1M158 29h1M171 29h1M173 29h1M192 29h1M194 29h1M207 29h1M219 29h1M268 29h1M279 29h1M328 29h1M339 29h1M388 29h1M1 30h1M22 30h1M98 30h1M111 30h1M114 30h1M128 30h1M158 30h1M171 30h1M174 30h1M191 30h1M194 30h1M207 30h1M219 30h1M268 30h1M279 30h1M328 30h1M339 30h1M388 30h1M1 31h1M22 31h1M81 31h2M98 31h1M111 31h1M115 31h1M129 31h1M158 31h1M171 31h1M175 31h1M190 31h1M194 31h1M207 31h1M219 31h1M268 31h1M279 31h1M328 31h1M339 31h1M388 31h1M1 32h1M22 32h1M80 32h1M82 32h1M98 32h1M111 32h1M116 32h1M130 32h1M158 32h1M171 32h1M176 32h1M189 32h1M194 32h1M207 32h1M219 32h50M279 32h1M292 32h6M311 32h18M339 32h37M388 32h1M1 33h1M22 33h1M79 33h1M82 33h1M98 33h1M111 33h1M117 33h1M131 33h1M158 33h1M171 33h1M177 33h1M188 33h1M194 33h1M207 33h1M279 33h1M292 33h1M298 33h1M312 33h1M375 33h1M388 33h1M1 34h1M22 34h1M78 34h1M82 34h1M98 34h1M111 34h1M118 34h1M132 34h1M158 34h1M171 34h1M178 34h1M187 34h1M194 34h1M207 34h1M279 34h1M292 34h1M299 34h1M313 34h1M375 34h1M388 34h1M1 35h1M22 35h1M77 35h1M82 35h1M98 35h1M111 35h1M119 35h1M133 35h1M158 35h1M171 35h1M179 35h1M186 35h1M194 35h1M207 35h1M279 35h1M292 35h1M300 35h1M314 35h1M375 35h1M388 35h1M1 36h1M22 36h1M76 36h1M82 36h1M98 36h1M111 36h1M120 36h1M134 36h1M158 36h1M171 36h1M180 36h1M185 36h1M194 36h1M207 36h1M279 36h1M292 36h1M301 36h1M315 36h1M375 36h1M388 36h1M1 37h1M22 37h1M75 37h1M82 37h1M98 37h1M111 37h1M121 37h1M135 37h1M158 37h1M171 37h1M181 37h1M184 37h1M194 37h1M207 37h1M219 37h50M279 37h1M292 37h1M302 37h1M316 37h1M339 37h37M388 37h1M1 38h1M22 38h1M74 38h1M82 38h1M98 38h1M111 38h1M122 38h1M136 38h1M158 38h1M171 38h1M182 38h2M194 38h1M207 38h1M219 38h1M268 38h1M279 38h1M292 38h1M303 38h1M317 38h1M339 38h1M388 38h1M1 39h1M22 39h1M73 39h1M82 39h1M98 39h1M111 39h1M123 39h1M137 39h1M158 39h1M171 39h1M194 39h1M207 39h1M219 39h1M268 39h1M279 39h1M292 39h1M304 39h1M318 39h1M339 39h1M388 39h1M1 40h1M22 40h1M72 40h1M82 40h1M98 40h1M111 40h1M124 40h1M138 40h1M158 40h1M171 40h1M194 40h1M207 40h1M219 40h1M268 40h1M279 40h1M292 40h1M305 40h1M319 40h1M339 40h1M388 40h1M1 41h1M22 41h1M71 41h1M82 41h1M98 41h1M111 41h1M125 41h1M139 41h1M158 41h1M171 41h1M194 41h1M207 41h1M219 41h1M268 41h1M279 41h1M292 41h1M306 41h1M320 41h1M339 41h1M388 41h1M1 42h1M22 42h1M70 42h1M82 42h1M98 42h1M111 42h1M126 42h1M140 42h1M158 42h1M171 42h1M194 42h1M207 42h1M219 42h1M268 42h1M279 42h1M292 42h1M307 42h1M321 42h1M339 42h1M388 42h1M1 43h1M22 43h1M69 43h1M82 43h1M98 43h1M111 43h1M127 43h1M141 43h1M158 43h1M171 43h1M194 43h1M207 43h1M219 43h1M268 43h1M279 43h1M292 43h1M308 43h1M322 43h1M339 43h1M388 43h1M1 44h1M22 44h1M68 44h1M82 44h1M98 44h1M111 44h1M128 44h1M142 44h1M158 44h1M171 44h1M194 44h1M207 44h1M219 44h1M268 44h1M279 44h1M292 44h1M309 44h1M323 44h1M339 44h1M388 44h1M1 45h1M22 45h1M67 45h1M82 45h1M98 45h1M111 45h1M129 45h1M143 45h1M158 45h1M171 45h1M194 45h1M207 45h1M219 45h1M268 45h1M279 45h1M292 45h1M310 45h1M324 45h1M339 45h1M388 45h1M1 46h1M22 46h1M66 46h1M82 46h1M98 46h1M111 46h1M130 46h1M144 46h1M158 46h1M171 46h1M194 46h1M207 46h1M219 46h1M268 46h1M279 46h1M292 46h1M311 46h1M325 46h1M339 46h1M388 46h1M1 47h1M22 47h1M65 47h1M82 47h1M98 47h1M111 47h1M131 47h1M145 47h1M158 47h1M171 47h1M194 47h1M207 47h1M219 47h1M268 47h1M279 47h1M292 47h1M312 47h1M326 47h1M339 47h1M388 47h1M1 48h1M22 48h1M64 48h1M82 48h1M98 48h1M111 48h1M132 48h1M146 48h1M158 48h1M171 48h1M194 48h1M207 48h1M219 48h1M268 48h1M279 48h1M292 48h1M313 48h1M327 48h1M339 48h1M388 48h1M1 49h1M22 49h1M63 49h1M82 49h1M98 49h1M111 49h1M133 49h1M147 49h1M158 49h1M171 49h1M194 49h1M207 49h1M219 49h1M268 49h1M279 49h1M292 49h1M314 49h1M328 49h1M339 49h1M388 49h1M1 50h1M22 50h1M62 50h1M82 50h1M98 50h14M134 50h14M158 50h14M194 50h14M219 50h50M279 50h14M315 50h1M328 50h1M339 50h50M1 51h1M22 51h1M61 51h1M82 51h1M316 51h1M328 51h1M1 52h1M22 52h1M61 52h1M82 52h1M317 52h1M328 52h1M1 53h1M22 53h1M61 53h1M82 53h1M318 53h1M328 53h1M1 54h1M22 54h1M61 54h1M82 54h1M319 54h1M328 54h1M1 55h1M22 55h1M61 55h1M82 55h1M320 55h1M328 55h1M1 56h1M22 56h1M61 56h1M82 56h1M321 56h1M328 56h1M1 57h1M22 57h1M61 57h1M82 57h1M322 57h1M328 57h1M1 58h1M22 58h1M61 58h1M82 58h1M323 58h1M328 58h1M1 59h1M22 59h1M61 59h1M82 59h1M324 59h1M328 59h1M1 60h1M22 60h1M61 60h1M82 60h1M325 60h1M328 60h1M1 61h1M22 61h40M82 61h1M326 61h1M328 61h1M1 62h1M82 62h1M327 62h2M1 63h1M82 63h1M1 64h1M82 64h1M1 65h1M82 65h1M1 66h1M82 66h1M1 67h1M82 67h1M1 68h1M82 68h1M98 68h82M195 68h14M231 68h14M255 68h14M279 68h14M339 68h50M1 69h1M82 69h1M98 69h1M179 69h1M195 69h1M208 69h1M231 69h1M244 69h1M255 69h1M268 69h1M279 69h1M292 69h1M339 69h1M388 69h1M1 70h1M82 70h1M98 70h1M179 70h1M195 70h1M208 70h1M231 70h1M244 70h1M255 70h1M268 70h1M279 70h1M292 70h1M339 70h1M388 70h1M1 71h1M82 71h1M98 71h1M179 71h1M195 71h1M208 71h1M231 71h1M244 71h1M255 71h1M268 71h1M279 71h1M292 71h1M339 71h1M388 71h1M1 72h1M82 72h1M98 72h1M179 72h1M195 72h1M208 72h1M231 72h1M244 72h1M255 72h1M268 72h1M279 72h1M292 72h1M339 72h1M388 72h1M1 73h1M82 73h1M98 73h1M179 73h1M195 73h1M208 73h1M231 73h1M244 73h1M255 73h1M268 73h1M279 73h1M292 73h1M339 73h1M388 73h1M1 74h1M82 74h1M98 74h1M179 74h1M195 74h1M208 74h1M231 74h1M244 74h1M255 74h1M268 74h1M279 74h1M292 74h1M339 74h1M388 74h1M1 75h1M82 75h1M98 75h1M179 75h1M195 75h1M208 75h1M231 75h1M244 75h1M255 75h1M268 75h1M279 75h1M292 75h1M339 75h1M388 75h1M1 76h1M82 76h1M98 76h1M179 76h1M195 76h1M208 76h1M231 76h1M244 76h1M255 76h1M268 76h1M279 76h1M292 76h1M339 76h1M388 76h1M1 77h1M82 77h1M98 77h1M179 77h1M195 77h1M208 77h1M231 77h1M244 77h1M255 77h1M268 77h1M279 77h1M292 77h1M339 77h1M388 77h1M1 78h1M82 78h1M98 78h1M179 78h1M195 78h1M208 78h1M231 78h1M244 78h1M255 78h1M268 78h1M279 78h1M292 78h1M339 78h1M388 78h1M1 79h1M82 79h1M98 79h1M179 79h1M195 79h1M208 79h1M231 79h1M244 79h1M255 79h1M268 79h1M279 79h1M292 79h1M339 79h1M388 79h1M1 80h1M82 80h1M98 80h1M179 80h1M195 80h1M208 80h1M231 80h1M244 80h1M255 80h1M268 80h1M279 80h1M292 80h1M339 80h1M388 80h1M1 81h1M82 81h1M98 81h1M179 81h1M195 81h1M208 81h1M231 81h1M244 81h1M255 81h1M268 81h1M279 81h1M292 81h1M339 81h1M352 81h24M388 81h1M1 82h61M82 82h1M98 82h1M179 82h1M195 82h1M208 82h1M231 82h1M244 82h1M255 82h1M268 82h1M279 82h1M292 82h1M339 82h1M352 82h1M375 82h1M388 82h1M61 83h1M81 83h1M98 83h1M179 83h1M195 83h1M208 83h1M231 83h1M244 83h1M255 83h1M268 83h1M279 83h1M292 83h1M339 83h1M352 83h1M375 83h1M388 83h1M61 84h1M80 84h1M98 84h1M179 84h1M195 84h1M208 84h1M231 84h1M244 84h1M255 84h1M268 84h1M279 84h1M292 84h1M339 84h1M352 84h1M375 84h1M388 84h1M61 85h1M79 85h1M98 85h1M179 85h1M195 85h1M208 85h1M231 85h1M244 85h1M255 85h1M268 85h1M279 85h1M292 85h1M339 85h1M352 85h1M375 85h1M388 85h1M61 86h1M78 86h1M98 86h1M179 86h1M195 86h1M208 86h1M231 86h1M244 86h1M255 86h1M268 86h1M279 86h1M292 86h1M339 86h1M352 86h1M375 86h1M388 86h1M61 87h1M77 87h1M98 87h1M179 87h1M195 87h1M208 87h1M231 87h1M244 87h1M255 87h1M268 87h1M279 87h1M292 87h1M339 87h1M352 87h1M375 87h1M388 87h1M61 88h1M76 88h1M98 88h1M179 88h1M195 88h1M208 88h1M231 88h1M244 88h1M255 88h1M268 88h1M279 88h1M292 88h1M339 88h1M352 88h1M375 88h1M388 88h1M61 89h1M75 89h1M98 89h1M119 89h61M195 89h1M208 89h1M231 89h1M244 89h1M255 89h1M268 89h1M279 89h1M292 89h1M339 89h1M352 89h1M375 89h1M388 89h1M61 90h1M74 90h1M98 90h1M119 90h1M195 90h1M208 90h1M231 90h1M244 90h1M255 90h1M268 90h1M279 90h1M292 90h1M339 90h1M352 90h1M375 90h1M388 90h1M61 91h1M73 91h1M98 91h1M119 91h1M195 91h1M208 91h1M231 91h1M244 91h1M255 91h1M268 91h1M279 91h1M292 91h1M339 91h1M352 91h1M375 91h1M388 91h1M61 92h1M72 92h1M98 92h1M119 92h1M195 92h1M208 92h1M231 92h1M244 92h1M255 92h1M268 92h1M279 92h1M292 92h1M339 92h1M352 92h1M375 92h1M388 92h1M61 93h1M71 93h1M98 93h1M119 93h1M195 93h1M208 93h1M231 93h1M244 93h1M255 93h1M268 93h1M279 93h1M292 93h1M339 93h1M352 93h1M374 93h1M388 93h1M61 94h1M70 94h1M98 94h1M119 94h1M195 94h1M208 94h1M231 94h1M244 94h1M255 94h1M268 94h1M279 94h1M292 94h1M339 94h1M352 94h1M373 94h1M387 94h1M61 95h1M69 95h1M98 95h1M119 95h1M195 95h1M208 95h1M231 95h1M244 95h1M255 95h1M268 95h1M279 95h1M292 95h1M339 95h1M352 95h1M372 95h1M386 95h1M61 96h1M68 96h1M98 96h1M119 96h1M195 96h1M208 96h1M231 96h1M244 96h1M255 96h1M268 96h1M279 96h1M292 96h1M339 96h1M352 96h1M371 96h1M385 96h1M61 97h1M67 97h1M98 97h1M119 97h1M195 97h1M208 97h1M231 97h1M244 97h1M255 97h1M268 97h1M279 97h1M292 97h1M339 97h1M352 97h1M370 97h1M384 97h1M61 98h1M66 98h1M98 98h1M119 98h1M178 98h2M195 98h1M208 98h1M231 98h1M244 98h1M255 98h1M268 98h1M279 98h1M292 98h1M339 98h1M352 98h1M369 98h1M383 98h1M61 99h1M65 99h1M98 99h1M119 99h1M177 99h1M179 99h1M195 99h1M208 99h1M231 99h1M244 99h1M255 99h1M268 99h1M279 99h1M292 99h1M339 99h1M352 99h1M368 99h1M382 99h1M61 100h1M64 100h1M98 100h1M119 100h1M176 100h1M179 100h1M195 100h1M208 100h1M231 100h1M244 100h1M255 100h1M268 100h1M279 100h1M292 100h1M339 100h1M352 100h1M367 100h1M381 100h1M61 101h1M63 101h1M98 101h1M119 101h1M175 101h1M179 101h1M195 101h1M208 101h1M231 101h1M244 101h1M255 101h1M268 101h1M279 101h1M292 101h1M339 101h1M352 101h1M366 101h1M380 101h1M61 102h2M98 102h1M119 102h1M174 102h1M179 102h1M195 102h1M208 102h1M231 102h1M244 102h1M255 102h1M268 102h1M279 102h1M292 102h1M339 102h1M352 102h1M365 102h1M379 102h1M98 103h1M119 103h1M173 103h1M179 103h1M195 103h1M208 103h1M231 103h1M244 103h1M255 103h1M268 103h1M279 103h1M292 103h1M339 103h1M352 103h1M364 103h1M378 103h1M98 104h1M119 104h1M172 104h1M179 104h1M195 104h1M208 104h24M244 104h1M255 104h1M268 104h1M279 104h1M292 104h37M339 104h1M352 104h1M363 104h1M377 104h1M98 105h1M119 105h1M171 105h1M179 105h1M195 105h1M244 105h1M255 105h1M268 105h1M279 105h1M328 105h1M339 105h1M352 105h1M362 105h1M376 105h1M98 106h1M119 106h1M170 106h1M179 106h1M195 106h1M244 106h1M255 106h1M268 106h1M279 106h1M328 106h1M339 106h1M352 106h1M361 106h1M375 106h1M98 107h1M119 107h1M169 107h1M179 107h1M195 107h1M244 107h1M255 107h1M268 107h1M279 107h1M328 107h1M339 107h1M352 107h1M360 107h1M374 107h1M98 108h1M119 108h1M168 108h1M179 108h1M195 108h1M244 108h1M255 108h1M268 108h1M279 108h1M328 108h1M339 108h1M352 108h1M359 108h1M373 108h1M98 109h1M119 109h1M167 109h1M179 109h1M195 109h1M244 109h1M255 109h1M268 109h1M279 109h1M328 109h1M339 109h1M352 109h1M358 109h1M372 109h1M98 110h1M119 110h1M166 110h1M179 110h1M195 110h1M244 110h1M255 110h1M268 110h1M279 110h1M328 110h1M339 110h1M352 110h1M357 110h1M371 110h1M98 111h1M119 111h1M165 111h1M179 111h1M195 111h1M244 111h1M255 111h1M268 111h1M279 111h1M328 111h1M339 111h1M352 111h1M356 111h1M370 111h1M98 112h1M119 112h1M164 112h1M179 112h1M195 112h1M244 112h1M255 112h1M268 112h1M279 112h1M328 112h1M339 112h1M352 112h1M355 112h1M369 112h1M98 113h1M119 113h1M163 113h1M179 113h1M195 113h1M244 113h1M255 113h1M268 113h1M279 113h1M328 113h1M339 113h1M352 113h1M354 113h1M368 113h1M98 114h1M119 114h1M162 114h1M179 114h1M195 114h1M244 114h1M255 114h1M268 114h1M279 114h1M328 114h1M339 114h1M352 114h2M367 114h1M98 115h1M119 115h1M161 115h1M179 115h1M195 115h1M244 115h1M255 115h1M268 115h1M279 115h1M328 115h1M339 115h1M352 115h1M366 115h1M98 116h1M119 116h1M160 116h1M179 116h1M195 116h1M244 116h1M255 116h1M268 116h1M279 116h1M328 116h1M339 116h1M365 116h1M98 117h1M119 117h1M159 117h1M179 117h1M195 117h50M255 117h14M279 117h50M339 117h1M364 117h1M98 118h1M119 118h1M158 118h1M179 118h1M339 118h1M363 118h1M98 119h1M119 119h1M158 119h1M179 119h1M339 119h1M362 119h1M98 120h1M119 120h1M158 120h1M179 120h1M339 120h1M361 120h1M98 121h1M119 121h1M158 121h1M179 121h1M339 121h1M360 121h1M98 122h1M119 122h1M158 122h1M179 122h1M339 122h1M359 122h1M98 123h1M119 123h1M158 123h1M179 123h1M339 123h1M358 123h1M98 124h1M119 124h1M158 124h1M179 124h1M339 124h1M357 124h1M98 125h1M119 125h1M158 125h1M179 125h1M339 125h1M356 125h1M98 126h1M119 126h1M158 126h1M179 126h1M339 126h1M355 126h1M98 127h1M119 127h1M158 127h1M179 127h1M339 127h1M354 127h1M98 128h1M119 128h40M179 128h1M339 128h1M353 128h1M98 129h1M179 129h1M339 129h1M352 129h1M98 130h1M179 130h1M339 130h1M351 130h1M98 131h1M179 131h1M339 131h1M350 131h1M98 132h1M179 132h1M339 132h1M349 132h1M98 133h1M179 133h1M339 133h1M348 133h1M98 134h1M179 134h1M339 134h1M347 134h1M98 135h1M179 135h1M339 135h1M346 135h1M98 136h1M179 136h1M339 136h1M345 136h1M98 137h1M179 137h1M339 137h1M344 137h1M98 138h1M179 138h1M339 138h1M343 138h1M98 139h1M179 139h1M339 139h1M342 139h1M98 140h1M179 140h1M339 140h1M341 140h1M98 141h1M179 141h1M339 141h2M98 142h1M179 142h1M98 143h1M179 143h1M98 144h1M179 144h1M98 145h1M179 145h1M98 146h1M179 146h1M98 147h1M179 147h1M98 148h1M179 148h1M98 149h61M179 149h1M158 150h1M178 150h1M158 151h1M177 151h1M158 152h1M176 152h1M158 153h1M175 153h1M158 154h1M174 154h1M158 155h1M173 155h1M158 156h1M172 156h1M158 157h1M171 157h1M158 158h1M170 158h1M158 159h1M169 159h1M158 160h1M168 160h1M158 161h1M167 161h1M158 162h1M166 162h1M158 163h1M165 163h1M158 164h1M164 164h1M158 165h1M163 165h1M158 166h1M162 166h1M158 167h1M161 167h1M158 168h1M160 168h1M158 169h2" />
<path stroke="#ed1d24" d="M2 2h80M2 3h80M2 4h80M2 5h80M2 6h80M2 7h80M2 8h80M2 9h80M2 10h80M2 11h80M2 12h80M2 13h80M2 14h80M2 15h80M2 16h80M2 17h80M2 18h80M2 19h80M2 20h80M2 21h80M2 22h20M2 23h20M2 24h20M2 25h20M2 26h20M2 27h20M2 28h20M2 29h20M2 30h20M2 31h20M2 32h20M81 32h1M2 33h20M80 33h2M2 34h20M79 34h3M2 35h20M78 35h4M2 36h20M77 36h5M2 37h20M76 37h6M2 38h20M75 38h7M2 39h20M74 39h8M2 40h20M73 40h9M2 41h20M72 41h10M2 42h20M71 42h11M2 43h20M70 43h12M2 44h20M69 44h13M2 45h20M68 45h14M2 46h20M67 46h15M2 47h20M66 47h16M2 48h20M65 48h17M2 49h20M64 49h18M2 50h20M63 50h19M2 51h20M62 51h20M2 52h20M62 52h20M2 53h20M62 53h20M2 54h20M62 54h20M2 55h20M62 55h20M2 56h20M62 56h20M2 57h20M62 57h20M2 58h20M62 58h20M2 59h20M62 59h20M2 60h20M62 60h20M2 61h20M62 61h20M2 62h80M2 63h80M2 64h80M2 65h80M2 66h80M2 67h80M2 68h80M2 69h80M99 69h80M2 70h80M99 70h80M2 71h80M99 71h80M2 72h80M99 72h80M2 73h80M99 73h80M2 74h80M99 74h80M2 75h80M99 75h80M2 76h80M99 76h80M2 77h80M99 77h80M2 78h80M99 78h80M2 79h80M99 79h80M2 80h80M99 80h80M2 81h80M99 81h80M62 82h20M99 82h80M62 83h19M99 83h80M62 84h18M99 84h80M62 85h17M99 85h80M62 86h16M99 86h80M62 87h15M99 87h80M62 88h14M99 88h80M62 89h13M99 89h20M62 90h12M99 90h20M62 91h11M99 91h20M62 92h10M99 92h20M62 93h9M99 93h20M62 94h8M99 94h20M62 95h7M99 95h20M62 96h6M99 96h20M62 97h5M99 97h20M62 98h4M99 98h20M62 99h3M99 99h20M178 99h1M62 100h2M99 100h20M177 100h2M62 101h1M99 101h20M176 101h3M99 102h20M175 102h4M99 103h20M174 103h5M99 104h20M173 104h6M99 105h20M172 105h7M99 106h20M171 106h8M99 107h20M170 107h9M99 108h20M169 108h10M99 109h20M168 109h11M99 110h20M167 110h12M99 111h20M166 111h13M99 112h20M165 112h14M99 113h20M164 113h15M99 114h20M163 114h16M99 115h20M162 115h17M99 116h20M161 116h18M99 117h20M160 117h19M99 118h20M159 118h20M99 119h20M159 119h20M99 120h20M159 120h20M99 121h20M159 121h20M99 122h20M159 122h20M99 123h20M159 123h20M99 124h20M159 124h20M99 125h20M159 125h20M99 126h20M159 126h20M99 127h20M159 127h20M99 128h20M159 128h20M99 129h80M99 130h80M99 131h80M99 132h80M99 133h80M99 134h80M99 135h80M99 136h80M99 137h80M99 138h80M99 139h80M99 140h80M99 141h80M99 142h80M99 143h80M99 144h80M99 145h80M99 146h80M99 147h80M99 148h80M159 149h20M159 150h19M159 151h18M159 152h17M159 153h16M159 154h15M159 155h14M159 156h13M159 157h12M159 158h11M159 159h10M159 160h9M159 161h8M159 162h7M159 163h6M159 164h5M159 165h4M159 166h3M159 167h2M159 168h1" />
<path stroke="#1b4691" d="M99 2h1M159 2h1M206 2h1M220 2h48M280 2h48M340 2h48M99 3h2M159 3h2M205 3h2M220 3h48M280 3h48M340 3h48M99 4h3M159 4h3M204 4h3M220 4h48M280 4h48M340 4h48M99 5h4M159 5h4M203 5h4M220 5h48M280 5h48M340 5h48M99 6h5M159 6h5M202 6h5M220 6h48M280 6h48M340 6h48M99 7h6M159 7h6M201 7h6M220 7h48M280 7h48M340 7h48M99 8h7M159 8h7M200 8h7M220 8h48M280 8h48M340 8h48M99 9h8M159 9h8M199 9h8M220 9h48M280 9h48M340 9h48M99 10h9M159 10h9M198 10h9M220 10h48M280 10h48M340 10h48M99 11h10M159 11h10M197 11h10M220 11h48M280 11h48M340 11h48M99 12h11M159 12h11M196 12h11M220 12h48M280 12h48M340 12h48M99 13h12M159 13h12M195 13h12M220 13h48M280 13h48M340 13h48M99 14h13M159 14h13M194 14h13M316 14h12M340 14h12M99 15h14M159 15h14M193 15h14M316 15h12M340 15h12M99 16h15M159 16h15M192 16h15M316 16h12M340 16h12M99 17h16M159 17h16M191 17h16M316 17h12M340 17h12M99 18h17M159 18h17M190 18h17M316 18h12M340 18h12M99 19h18M159 19h18M189 19h18M316 19h12M340 19h12M99 20h19M159 20h19M188 20h19M220 20h48M280 20h48M340 20h48M99 21h20M159 21h20M187 21h20M220 21h48M280 21h48M340 21h48M99 22h21M159 22h21M186 22h21M220 22h48M280 22h48M340 22h48M99 23h22M159 23h22M185 23h22M220 23h48M280 23h48M340 23h48M99 24h23M159 24h23M184 24h23M220 24h48M280 24h48M340 24h48M99 25h24M159 25h48M220 25h48M280 25h48M340 25h48M99 26h25M159 26h48M220 26h48M280 26h48M340 26h48M99 27h12M112 27h13M159 27h12M172 27h22M195 27h12M220 27h48M280 27h48M340 27h48M99 28h12M113 28h13M159 28h12M173 28h20M195 28h12M220 28h48M280 28h48M340 28h48M99 29h12M114 29h13M159 29h12M174 29h18M195 29h12M220 29h48M280 29h48M340 29h48M99 30h12M115 30h13M159 30h12M175 30h16M195 30h12M220 30h48M280 30h48M340 30h48M99 31h12M116 31h13M159 31h12M176 31h14M195 31h12M220 31h48M280 31h48M340 31h48M99 32h12M117 32h13M159 32h12M177 32h12M195 32h12M280 32h12M298 32h13M376 32h12M99 33h12M118 33h13M159 33h12M178 33h10M195 33h12M280 33h12M299 33h13M376 33h12M99 34h12M119 34h13M159 34h12M179 34h8M195 34h12M280 34h12M300 34h13M376 34h12M99 35h12M120 35h13M159 35h12M180 35h6M195 35h12M280 35h12M301 35h13M376 35h12M99 36h12M121 36h13M159 36h12M181 36h4M195 36h12M280 36h12M302 36h13M376 36h12M99 37h12M122 37h13M159 37h12M182 37h2M195 37h12M280 37h12M303 37h13M376 37h12M99 38h12M123 38h13M159 38h12M195 38h12M220 38h48M280 38h12M304 38h13M340 38h48M99 39h12M124 39h13M159 39h12M195 39h12M220 39h48M280 39h12M305 39h13M340 39h48M99 40h12M125 40h13M159 40h12M195 40h12M220 40h48M280 40h12M306 40h13M340 40h48M99 41h12M126 41h13M159 41h12M195 41h12M220 41h48M280 41h12M307 41h13M340 41h48M99 42h12M127 42h13M159 42h12M195 42h12M220 42h48M280 42h12M308 42h13M340 42h48M99 43h12M128 43h13M159 43h12M195 43h12M220 43h48M280 43h12M309 43h13M340 43h48M99 44h12M129 44h13M159 44h12M195 44h12M220 44h48M280 44h12M310 44h13M340 44h48M99 45h12M130 45h13M159 45h12M195 45h12M220 45h48M280 45h12M311 45h13M340 45h48M99 46h12M131 46h13M159 46h12M195 46h12M220 46h48M280 46h12M312 46h13M340 46h48M99 47h12M132 47h13M159 47h12M195 47h12M220 47h48M280 47h12M313 47h13M340 47h48M99 48h12M133 48h13M159 48h12M195 48h12M220 48h48M280 48h12M314 48h13M340 48h48M99 49h12M134 49h13M159 49h12M195 49h12M220 49h48M280 49h12M315 49h13M340 49h48M316 50h12M317 51h11M318 52h10M319 53h9M320 54h8M321 55h7M322 56h6M323 57h5M324 58h4M325 59h3M326 60h2M327 61h1M196 69h12M232 69h12M256 69h12M280 69h12M340 69h48M196 70h12M232 70h12M256 70h12M280 70h12M340 70h48M196 71h12M232 71h12M256 71h12M280 71h12M340 71h48M196 72h12M232 72h12M256 72h12M280 72h12M340 72h48M196 73h12M232 73h12M256 73h12M280 73h12M340 73h48M196 74h12M232 74h12M256 74h12M280 74h12M340 74h48M196 75h12M232 75h12M256 75h12M280 75h12M340 75h48M196 76h12M232 76h12M256 76h12M280 76h12M340 76h48M196 77h12M232 77h12M256 77h12M280 77h12M340 77h48M196 78h12M232 78h12M256 78h12M280 78h12M340 78h48M196 79h12M232 79h12M256 79h12M280 79h12M340 79h48M196 80h12M232 80h12M256 80h12M280 80h12M340 80h48M196 81h12M232 81h12M256 81h12M280 81h12M340 81h12M376 81h12M196 82h12M232 82h12M256 82h12M280 82h12M340 82h12M376 82h12M196 83h12M232 83h12M256 83h12M280 83h12M340 83h12M376 83h12M196 84h12M232 84h12M256 84h12M280 84h12M340 84h12M376 84h12M196 85h12M232 85h12M256 85h12M280 85h12M340 85h12M376 85h12M196 86h12M232 86h12M256 86h12M280 86h12M340 86h12M376 86h12M196 87h12M232 87h12M256 87h12M280 87h12M340 87h12M376 87h12M196 88h12M232 88h12M256 88h12M280 88h12M340 88h12M376 88h12M196 89h12M232 89h12M256 89h12M280 89h12M340 89h12M376 89h12M196 90h12M232 90h12M256 90h12M280 90h12M340 90h12M376 90h12M196 91h12M232 91h12M256 91h12M280 91h12M340 91h12M376 91h12M196 92h12M232 92h12M256 92h12M280 92h12M340 92h12M376 92h12M196 93h12M232 93h12M256 93h12M280 93h12M340 93h12M375 93h13M196 94h12M232 94h12M256 94h12M280 94h12M340 94h12M374 94h13M196 95h12M232 95h12M256 95h12M280 95h12M340 95h12M373 95h13M196 96h12M232 96h12M256 96h12M280 96h12M340 96h12M372 96h13M196 97h12M232 97h12M256 97h12M280 97h12M340 97h12M371 97h13M196 98h12M232 98h12M256 98h12M280 98h12M340 98h12M370 98h13M196 99h12M232 99h12M256 99h12M280 99h12M340 99h12M369 99h13M196 100h12M232 100h12M256 100h12M280 100h12M340 100h12M368 100h13M196 101h12M232 101h12M256 101h12M280 101h12M340 101h12M367 101h13M196 102h12M232 102h12M256 102h12M280 102h12M340 102h12M366 102h13M196 103h12M232 103h12M256 103h12M280 103h12M340 103h12M365 103h13M196 104h12M232 104h12M256 104h12M280 104h12M340 104h12M364 104h13M196 105h48M256 105h12M280 105h48M340 105h12M363 105h13M196 106h48M256 106h12M280 106h48M340 106h12M362 106h13M196 107h48M256 107h12M280 107h48M340 107h12M361 107h13M196 108h48M256 108h12M280 108h48M340 108h12M360 108h13M196 109h48M256 109h12M280 109h48M340 109h12M359 109h13M196 110h48M256 110h12M280 110h48M340 110h12M358 110h13M196 111h48M256 111h12M280 111h48M340 111h12M357 111h13M196 112h48M256 112h12M280 112h48M340 112h12M356 112h13M196 113h48M256 113h12M280 113h48M340 113h12M355 113h13M196 114h48M256 114h12M280 114h48M340 114h12M354 114h13M196 115h48M256 115h12M280 115h48M340 115h12M353 115h13M196 116h48M256 116h12M280 116h48M340 116h25M340 117h24M340 118h23M340 119h22M340 120h21M340 121h20M340 122h19M340 123h18M340 124h17M340 125h16M340 126h15M340 127h14M340 128h13M340 129h12M340 130h11M340 131h10M340 132h9M340 133h8M340 134h7M340 135h6M340 136h5M340 137h4M340 138h3M340 139h2M340 140h1" />
</svg>