<svg width="178" height="94" viewBox="0 0 178 94" fill="none" xmlns="http://www.w3.org/2000/svg">
<path d="M4 87.5H174Z" fill="black"/>
<path d="M2 1.5H176M1 2.5H177M1 3.5H3M175 3.5H177M1 4.5H2M176 4.5H177M149 5.5H169M147 6.5H171M146 7.5H172M146 8.5H172M146 9.5H172M147 10.5H171M149 11.5H169M3 84.5H4M174 84.5H175M3 85.5H5M173 85.5H175M3 86.5H175M4 87.5H174" stroke="#4DE1FF"/>
<path d="M1 93.5H177Z" fill="black"/>
<path d="M1 0.5H177M0 1.5H2M176 1.5H178M0 2.5H1M177 2.5H178M0 3.5H1M3 3.5H175M177 3.5H178M0 4.5H1M2 4.5H176M177 4.5H178M0 5.5H149M169 5.5H178M0 6.5H1M2 6.5H147M171 6.5H176M177 6.5H178M0 7.5H1M2 7.5H146M172 7.5H176M177 7.5H178M0 8.5H1M2 8.5H146M172 8.5H176M177 8.5H178M0 9.5H1M2 9.5H146M172 9.5H176M177 9.5H178M0 10.5H1M2 10.5H147M171 10.5H176M177 10.5H178M0 11.5H1M2 11.5H149M169 11.5H176M177 11.5H178M0 12.5H1M2 12.5H176M177 12.5H178M0 13.5H1M2 13.5H176M177 13.5H178M0 14.5H1M2 14.5H176M177 14.5H178M0 15.5H1M2 15.5H176M177 15.5H178M0 16.5H1M2 16.5H176M177 16.5H178M0 17.5H1M2 17.5H176M177 17.5H178M0 18.5H1M2 18.5H176M177 18.5H178M0 19.5H1M2 19.5H176M177 19.5H178M0 20.5H1M2 20.5H176M177 20.5H178M0 21.5H1M2 21.5H176M177 21.5H178M0 22.5H1M2 22.5H176M177 22.5H178M0 23.5H1M2 23.5H176M177 23.5H178M0 24.5H1M2 24.5H176M177 24.5H178M0 25.5H1M2 25.5H176M177 25.5H178M0 26.5H1M2 26.5H176M177 26.5H178M0 27.5H1M2 27.5H176M177 27.5H178M0 28.5H1M2 28.5H176M177 28.5H178M0 29.5H1M2 29.5H176M177 29.5H178M0 30.5H1M2 30.5H176M177 30.5H178M0 31.5H1M2 31.5H176M177 31.5H178M0 32.5H1M2 32.5H176M177 32.5H178M0 33.5H1M2 33.5H176M177 33.5H178M0 34.5H1M2 34.5H176M177 34.5H178M0 35.5H1M2 35.5H176M177 35.5H178M0 36.5H1M2 36.5H176M177 36.5H178M0 37.5H1M2 37.5H176M177 37.5H178M0 38.5H1M2 38.5H176M177 38.5H178M0 39.5H1M2 39.5H176M177 39.5H178M0 40.5H1M2 40.5H176M177 40.5H178M0 41.5H1M2 41.5H176M177 41.5H178M0 42.5H1M2 42.5H176M177 42.5H178M0 43.5H1M2 43.5H176M177 43.5H178M0 44.5H1M2 44.5H176M177 44.5H178M0 45.5H1M2 45.5H176M177 45.5H178M0 46.5H1M2 46.5H176M177 46.5H178M0 47.5H1M2 47.5H176M177 47.5H178M0 48.5H1M2 48.5H176M177 48.5H178M0 49.5H1M2 49.5H176M177 49.5H178M0 50.5H1M2 50.5H176M177 50.5H178M0 51.5H1M2 51.5H176M177 51.5H178M0 52.5H1M2 52.5H176M177 52.5H178M0 53.5H1M2 53.5H176M177 53.5H178M0 54.5H1M2 54.5H176M177 54.5H178M0 55.5H1M2 55.5H176M177 55.5H178M0 56.5H1M2 56.5H176M177 56.5H178M0 57.5H1M2 57.5H176M177 57.5H178M0 58.5H1M2 58.5H176M177 58.5H178M0 59.5H1M2 59.5H176M177 59.5H178M0 60.5H1M2 60.5H176M177 60.5H178M0 61.5H1M2 61.5H176M177 61.5H178M0 62.5H1M2 62.5H176M177 62.5H178M0 63.5H1M2 63.5H176M177 63.5H178M0 64.5H1M2 64.5H176M177 64.5H178M0 65.5H1M2 65.5H176M177 65.5H178M0 66.5H1M2 66.5H176M177 66.5H178M0 67.5H1M2 67.5H176M177 67.5H178M0 68.5H1M2 68.5H176M177 68.5H178M0 69.5H1M2 69.5H176M177 69.5H178M0 70.5H1M2 70.5H176M177 70.5H178M0 71.5H1M2 71.5H176M177 71.5H178M0 72.5H1M2 72.5H176M177 72.5H178M0 73.5H1M2 73.5H176M177 73.5H178M0 74.5H1M2 74.5H176M177 74.5H178M0 75.5H1M2 75.5H176M177 75.5H178M0 76.5H1M2 76.5H176M177 76.5H178M0 77.5H1M2 77.5H176M177 77.5H178M0 78.5H1M2 78.5H176M177 78.5H178M0 79.5H1M2 79.5H176M177 79.5H178M0 80.5H1M2 80.5H176M177 80.5H178M0 81.5H1M2 81.5H176M177 81.5H178M0 82.5H1M2 82.5H176M177 82.5H178M0 83.5H1M2 83.5H176M177 83.5H178M0 84.5H1M2 84.5H3M4 84.5H174M175 84.5H176M177 84.5H178M0 85.5H1M2 85.5H3M5 85.5H173M175 85.5H176M177 85.5H178M0 86.5H1M2 86.5H3M175 86.5H176M177 86.5H178M0 87.5H1M2 87.5H4M174 87.5H176M177 87.5H178M0 88.5H1M3 88.5H175M177 88.5H178M0 89.5H1M177 89.5H178M0 90.5H1M177 90.5H178M0 91.5H1M177 91.5H178M0 92.5H2M176 92.5H178M1 93.5H177" stroke="#1A9FFF"/>
<path d="M1 6.5H2H1ZM176 6.5H177H176ZM1 7.5H2H1ZM176 7.5H177H176ZM1 8.5H2H1ZM176 8.5H177H176ZM1 9.5H2H1ZM176 9.5H177H176ZM1 10.5H2H1ZM176 10.5H177H176ZM1 11.5H2H1ZM176 11.5H177H176ZM1 12.5H2H1ZM176 12.5H177H176ZM1 13.5H2H1ZM176 13.5H177H176ZM1 14.5H2H1ZM176 14.5H177H176ZM1 15.5H2H1ZM176 15.5H177H176ZM1 16.5H2H1ZM176 16.5H177H176ZM1 17.5H2H1ZM176 17.5H177H176ZM1 18.5H2H1ZM176 18.5H177H176ZM1 19.5H2H1ZM176 19.5H177H176ZM1 20.5H2H1ZM176 20.5H177H176ZM1 21.5H2H1ZM176 21.5H177H176ZM1 22.5H2H1ZM176 22.5H177H176ZM1 23.5H2H1ZM176 23.5H177H176ZM1 24.5H2H1ZM176 24.5H177H176ZM1 25.5H2H1ZM176 25.5H177H176ZM1 26.5H2H1ZM176 26.5H177H176ZM1 27.5H2H1ZM176 27.5H177H176ZM1 28.5H2H1ZM176 28.5H177H176ZM1 29.5H2H1ZM176 29.5H177H176ZM1 30.5H2H1ZM176 30.5H177H176ZM1 31.5H2H1ZM176 31.5H177H176ZM1 32.5H2H1ZM176 32.5H177H176ZM1 33.5H2H1ZM176 33.5H177H176ZM1 34.5H2H1ZM176 34.5H177H176ZM1 35.5H2H1ZM176 35.5H177H176ZM1 36.5H2H1ZM176 36.5H177H176ZM1 37.5H2H1ZM176 37.5H177H176ZM1 38.5H2H1ZM176 38.5H177H176ZM1 39.5H2H1ZM176 39.5H177H176ZM1 40.5H2H1ZM176 40.5H177H176ZM1 41.5H2H1ZM176 41.5H177H176ZM1 42.5H2H1ZM176 42.5H177H176ZM1 43.5H2H1ZM176 43.5H177H176ZM1 44.5H2H1ZM176 44.5H177H176ZM1 45.5H2H1ZM176 45.5H177H176ZM1 46.5H2H1ZM176 46.5H177H176ZM1 47.5H2H1ZM176 47.5H177H176ZM1 48.5H2H1ZM176 48.5H177H176ZM1 49.5H2H1ZM176 49.5H177H176ZM1 50.5H2H1ZM176 50.5H177H176ZM1 51.5H2H1ZM176 51.5H177H176ZM1 52.5H2H1ZM176 52.5H177H176ZM1 53.5H2H1ZM176 53.5H177H176ZM1 54.5H2H1ZM176 54.5H177H176ZM1 55.5H2H1ZM176 55.5H177H176ZM1 56.5H2H1ZM176 56.5H177H176ZM1 57.5H2H1ZM176 57.5H177H176ZM1 58.5H2H1ZM176 58.5H177H176ZM1 59.5H2H1ZM176 59.5H177H176ZM1 60.5H2H1ZM176 60.5H177H176ZM1 61.5H2H1ZM176 61.5H177H176ZM1 62.5H2H1ZM176 62.5H177H176ZM1 63.5H2H1ZM176 63.5H177H176ZM1 64.5H2H1ZM176 64.5H177H176ZM1 65.5H2H1ZM176 65.5H177H176ZM1 66.5H2H1ZM176 66.5H177H176ZM1 67.5H2H1ZM176 67.5H177H176ZM1 68.5H2H1ZM176 68.5H177H176ZM1 69.5H2H1ZM176 69.5H177H176ZM1 70.5H2H1ZM176 70.5H177H176ZM1 71.5H2H1ZM176 71.5H177H176ZM1 72.5H2H1ZM176 72.5H177H176ZM1 73.5H2H1ZM176 73.5H177H176ZM1 74.5H2H1ZM176 74.5H177H176ZM1 75.5H2H1ZM176 75.5H177H176ZM1 76.5H2H1ZM176 76.5H177H176ZM1 77.5H2H1ZM176 77.5H177H176ZM1 78.5H2H1ZM176 78.5H177H176ZM1 79.5H2H1ZM176 79.5H177H176ZM1 80.5H2H1ZM176 80.5H177H176ZM1 81.5H2H1ZM176 81.5H177H176ZM1 82.5H2H1ZM176 82.5H177H176ZM1 83.5H2H1ZM176 83.5H177H176ZM1 84.5H2H1ZM176 84.5H177H176ZM1 85.5H2H1ZM176 85.5H177H176ZM1 86.5H2H1ZM176 86.5H177H176ZM1 87.5H2H1ZM176 87.5H177H176ZM1 88.5H3H1ZM175 88.5H177H175ZM1 89.5H177H1ZM1 90.5H177H1ZM1 91.5H177H1ZM2 92.5H176Z" fill="black"/>
<path d="M2 92.5H176M1 6.5H2H1ZM176 6.5H177H176ZM1 7.5H2H1ZM176 7.5H177H176ZM1 8.5H2H1ZM176 8.5H177H176ZM1 9.5H2H1ZM176 9.5H177H176ZM1 10.5H2H1ZM176 10.5H177H176ZM1 11.5H2H1ZM176 11.5H177H176ZM1 12.5H2H1ZM176 12.5H177H176ZM1 13.5H2H1ZM176 13.5H177H176ZM1 14.5H2H1ZM176 14.5H177H176ZM1 15.5H2H1ZM176 15.5H177H176ZM1 16.5H2H1ZM176 16.5H177H176ZM1 17.5H2H1ZM176 17.5H177H176ZM1 18.5H2H1ZM176 18.5H177H176ZM1 19.5H2H1ZM176 19.5H177H176ZM1 20.5H2H1ZM176 20.5H177H176ZM1 21.5H2H1ZM176 21.5H177H176ZM1 22.5H2H1ZM176 22.5H177H176ZM1 23.5H2H1ZM176 23.5H177H176ZM1 24.5H2H1ZM176 24.5H177H176ZM1 25.5H2H1ZM176 25.5H177H176ZM1 26.5H2H1ZM176 26.5H177H176ZM1 27.5H2H1ZM176 27.5H177H176ZM1 28.5H2H1ZM176 28.5H177H176ZM1 29.5H2H1ZM176 29.5H177H176ZM1 30.5H2H1ZM176 30.5H177H176ZM1 31.5H2H1ZM176 31.5H177H176ZM1 32.5H2H1ZM176 32.5H177H176ZM1 33.5H2H1ZM176 33.5H177H176ZM1 34.5H2H1ZM176 34.5H177H176ZM1 35.5H2H1ZM176 35.5H177H176ZM1 36.5H2H1ZM176 36.5H177H176ZM1 37.5H2H1ZM176 37.5H177H176ZM1 38.5H2H1ZM176 38.5H177H176ZM1 39.5H2H1ZM176 39.5H177H176ZM1 40.5H2H1ZM176 40.5H177H176ZM1 41.5H2H1ZM176 41.5H177H176ZM1 42.5H2H1ZM176 42.5H177H176ZM1 43.5H2H1ZM176 43.5H177H176ZM1 44.5H2H1ZM176 44.5H177H176ZM1 45.5H2H1ZM176 45.5H177H176ZM1 46.5H2H1ZM176 46.5H177H176ZM1 47.5H2H1ZM176 47.5H177H176ZM1 48.5H2H1ZM176 48.5H177H176ZM1 49.5H2H1ZM176 49.5H177H176ZM1 50.5H2H1ZM176 50.5H177H176ZM1 51.5H2H1ZM176 51.5H177H176ZM1 52.5H2H1ZM176 52.5H177H176ZM1 53.5H2H1ZM176 53.5H177H176ZM1 54.5H2H1ZM176 54.5H177H176ZM1 55.5H2H1ZM176 55.5H177H176ZM1 56.5H2H1ZM176 56.5H177H176ZM1 57.5H2H1ZM176 57.5H177H176ZM1 58.5H2H1ZM176 58.5H177H176ZM1 59.5H2H1ZM176 59.5H177H176ZM1 60.5H2H1ZM176 60.5H177H176ZM1 61.5H2H1ZM176 61.5H177H176ZM1 62.5H2H1ZM176 62.5H177H176ZM1 63.5H2H1ZM176 63.5H177H176ZM1 64.5H2H1ZM176 64.5H177H176ZM1 65.5H2H1ZM176 65.5H177H176ZM1 66.5H2H1ZM176 66.5H177H176ZM1 67.5H2H1ZM176 67.5H177H176ZM1 68.5H2H1ZM176 68.5H177H176ZM1 69.5H2H1ZM176 69.5H177H176ZM1 70.5H2H1ZM176 70.5H177H176ZM1 71.5H2H1ZM176 71.5H177H176ZM1 72.5H2H1ZM176 72.5H177H176ZM1 73.5H2H1ZM176 73.5H177H176ZM1 74.5H2H1ZM176 74.5H177H176ZM1 75.5H2H1ZM176 75.5H177H176ZM1 76.5H2H1ZM176 76.5H177H176ZM1 77.5H2H1ZM176 77.5H177H176ZM1 78.5H2H1ZM176 78.5H177H176ZM1 79.5H2H1ZM176 79.5H177H176ZM1 80.5H2H1ZM176 80.5H177H176ZM1 81.5H2H1ZM176 81.5H177H176ZM1 82.5H2H1ZM176 82.5H177H176ZM1 83.5H2H1ZM176 83.5H177H176ZM1 84.5H2H1ZM176 84.5H177H176ZM1 85.5H2H1ZM176 85.5H177H176ZM1 86.5H2H1ZM176 86.5H177H176ZM1 87.5H2H1ZM176 87.5H177H176ZM1 88.5H3H1ZM175 88.5H177H175ZM1 89.5H177H1ZM1 90.5H177H1ZM1 91.5H177H1Z" stroke="#1C68FF"/>
</svg>
